<?xml version="1.0" encoding="UTF-8" standalone="no"?>
<svg
   xmlns:dc="http://purl.org/dc/elements/1.1/"
   xmlns:cc="http://creativecommons.org/ns#"
   xmlns:rdf="http://www.w3.org/1999/02/22-rdf-syntax-ns#"
   xmlns:svg="http://www.w3.org/2000/svg"
   xmlns="http://www.w3.org/2000/svg"
   viewBox="0 0 755.90668 676.40802"
   height="676.40802"
   width="755.90668"
   xml:space="preserve"
   id="svg2"
   version="1.1"><metadata
     id="metadata8"><rdf:RDF><cc:Work
         rdf:about=""><dc:format>image/svg+xml</dc:format><dc:type
           rdf:resource="http://purl.org/dc/dcmitype/StillImage" /></cc:Work></rdf:RDF></metadata><defs
     id="defs6"><clipPath
       id="clipPath20"
       clipPathUnits="userSpaceOnUse"><path
         id="path18"
         d="M 0,507.306 H 566.93 V 0 H 0 Z" /></clipPath><clipPath
       id="clipPath120"
       clipPathUnits="userSpaceOnUse"><path
         id="path118"
         d="M 0,507.306 H 566.93 V 0 H 0 Z" /></clipPath></defs><g
     transform="matrix(1.3333333,0,0,-1.3333333,0,676.408)"
     id="g10"><path
       id="path12"
       style="fill:#326380;fill-opacity:1;fill-rule:nonzero;stroke:none"
       d="M 0,0.011 H 566.93 V 507.306 L 0,507.306 Z" /><g
       id="g14"><g
         clip-path="url(#clipPath20)"
         id="g16"><g
           transform="translate(448.0547,293.4106)"
           id="g22"><path
             id="path24"
             style="fill:#eb9618;fill-opacity:1;fill-rule:nonzero;stroke:none"
             d="m 0,0 c -0.098,-0.507 2.646,-7.358 -7.328,-60.596 -9.926,-52.996 -15.011,-58.635 -15.103,-59.147 -0.38,-2.027 1.129,-4.01 4.034,-4.555 1.028,-0.191 2.038,0.079 2.83,0.659 0.158,0.053 0.342,0.218 0.541,0.489 0.379,0.414 0.659,0.92 0.823,1.485 3.697,8.007 11.011,38.304 15.013,59.543 C 4.769,-40.87 8.916,-9.986 8.365,-1.186 8.415,-0.6 8.338,-0.027 8.134,0.495 8.047,0.822 7.938,1.04 7.805,1.149 7.281,1.977 6.438,2.595 5.408,2.787 2.504,3.331 0.379,2.028 0,0" /></g><g
           transform="translate(441.0146,292.1435)"
           id="g26"><path
             id="path28"
             style="fill:#eb9618;fill-opacity:1;fill-rule:nonzero;stroke:none"
             d="m 0,0 c -0.094,-0.487 -0.083,-0.966 0.015,-1.422 l -0.278,-0.128 -10.335,-55.847 -10.578,-55.81 0.209,-0.219 c -0.253,-0.39 -0.437,-0.833 -0.528,-1.319 -0.365,-1.946 0.929,-3.644 2.801,-4.167 3.061,-0.856 4.6,1.844 4.76,2.387 3.542,7.67 10.184,36.77 14.016,57.127 3.793,20.363 8.138,49.891 7.61,58.322 C 7.424,0.499 6.504,2.789 4.117,2.871 2.174,2.939 0.36,1.943 0,0" /></g><g
           transform="translate(448.0547,293.4106)"
           id="g30"><path
             id="path32"
             style="fill:#d9781d;fill-opacity:1;fill-rule:nonzero;stroke:none"
             d="m 0,0 c -0.098,-0.507 2.646,-7.358 -7.328,-60.596 -9.926,-52.996 -15.011,-58.635 -15.103,-59.147 -0.043,-0.23 -0.055,-0.462 -0.05,-0.686 0.286,-2.239 1.955,0.362 2.662,2.42 3.545,7.669 10.183,36.77 14.017,57.127 3.796,20.361 8.138,49.89 7.612,58.322 C 1.578,-0.249 0.804,1.615 0.193,0.632 0.109,0.43 0.041,0.224 0,0" /></g><g
           transform="translate(440.7998,290.9911)"
           id="g34"><path
             id="path36"
             style="fill:#ffc21c;fill-opacity:1;fill-rule:nonzero;stroke:none"
             d="m 0,0 -0.003,-0.002 -51.078,-2.097 -16.845,-89.93 46.854,-20.442 v -10e-4 h 0.003 c 2.566,-0.47 11.018,33.175 15.178,55.37 C -1.734,-34.914 2.563,-0.49 0,0" /></g><g
           transform="translate(440.7969,290.9892)"
           id="g38"><path
             id="path40"
             style="fill:#ffa600;fill-opacity:1;fill-rule:nonzero;stroke:none"
             d="m 0,0 -51.078,-2.097 c 1.566,-0.294 1.361,-9.055 0.014,-20.896 l 50.209,-1.13 C 0.739,-10.911 1.418,-0.27 0.003,0.002 Z" /></g><g
           transform="translate(170.3589,373.5268)"
           id="g42"><path
             id="path44"
             style="fill:#ffa600;fill-opacity:1;fill-rule:nonzero;stroke:none"
             d="m 0,0 c -0.46,0.933 -1.62,1.441 -3.942,1.626 -1.16,0.103 -2.615,0.134 -4.388,0.261 -1.77,0.132 -3.865,0.342 -6.189,0.997 -2.31,0.651 -4.855,1.75 -7.258,3.75 -2.383,1.979 -4.658,4.954 -5.851,8.889 -1.189,3.89 -1.165,8.742 1.259,12.862 1.202,2.06 2.995,3.947 5.468,5.481 1.218,0.759 2.655,1.446 4.179,2.01 1.512,0.559 3.083,0.965 4.718,1.185 3.256,0.446 6.694,0.114 10.201,-1.011 C 1.701,34.933 5.229,33.039 8.615,30.623 15.404,25.761 21.566,18.958 26.907,11.58 32.249,4.169 36.841,-3.902 40.484,-12.018 l 1.336,-3.097 c 0.472,-1.132 0.975,-2.244 1.484,-3.35 1.026,-2.205 2.12,-4.358 3.289,-6.444 2.343,-4.173 4.978,-8.086 7.935,-11.616 2.957,-3.524 6.244,-6.669 9.891,-9.187 3.632,-2.51 7.679,-4.379 11.883,-5.129 4.196,-0.766 8.479,-0.259 11.943,1.214 3.452,1.436 6.255,3.615 8.219,6.173 1.971,2.552 2.939,5.392 3.23,7.786 0.304,2.414 0.044,4.414 -0.311,5.95 -0.77,3.07 -1.825,4.426 -2.354,4.286 -0.589,-0.146 -0.618,-1.821 -0.902,-4.546 -0.297,-2.685 -1.071,-6.552 -4.185,-9.381 -1.517,-1.407 -3.641,-2.607 -6.062,-3.248 -2.394,-0.644 -5.021,-0.632 -7.725,0.155 -5.445,1.558 -10.978,6.295 -15.488,12.545 -2.278,3.131 -4.344,6.641 -6.187,10.409 -0.921,1.883 -1.786,3.833 -2.593,5.838 -0.404,1.003 -0.8,2.014 -1.172,3.044 -0.38,1.035 -0.833,2.261 -1.272,3.378 C 47.842,1.88 43.193,10.818 37.5,19.244 31.782,27.626 25.039,35.591 16.583,41.878 12.354,44.996 7.65,47.666 2.47,49.374 c -5.156,1.717 -10.829,2.356 -16.224,1.603 -2.693,-0.361 -5.266,-1.039 -7.646,-1.935 -2.366,-0.89 -4.608,-1.97 -6.73,-3.332 -4.234,-2.673 -7.777,-6.418 -10.043,-10.608 -2.296,-4.184 -3.322,-8.684 -3.42,-12.815 -0.099,-4.148 0.672,-7.962 1.93,-11.289 2.537,-6.676 6.961,-11.373 11.432,-14.177 4.509,-2.835 8.993,-3.824 12.618,-3.993 3.659,-0.155 6.538,0.437 8.732,1.138 2.202,0.716 3.747,1.559 4.832,2.329 C 0.101,-2.137 0.45,-0.901 0,0" /></g><g
           transform="translate(137.6699,199.0126)"
           id="g46"><path
             id="path48"
             style="fill:#f0bd43;fill-opacity:1;fill-rule:nonzero;stroke:none"
             d="m 0,0 c 0.591,0.822 0.621,2.18 -0.875,4.434 -0.765,1.113 -1.914,2.452 -3.722,3.889 -1.804,1.419 -4.277,2.98 -7.734,4.1 -3.426,1.106 -7.932,1.74 -13.107,0.69 -5.131,-1.037 -10.885,-3.833 -15.616,-9.128 -2.35,-2.639 -4.426,-5.908 -5.816,-9.8 -1.382,-3.873 -2.047,-8.422 -1.415,-13.139 0.603,-4.708 2.549,-9.466 5.522,-13.487 1.489,-2.032 3.184,-3.845 5.063,-5.534 1.898,-1.691 4.05,-3.256 6.429,-4.567 4.756,-2.654 10.277,-4.115 15.703,-4.374 5.449,-0.283 10.8,0.503 15.87,1.878 10.16,2.797 19.327,7.782 27.69,13.526 8.356,5.794 15.925,12.447 22.58,19.641 0.816,0.883 1.681,1.861 2.412,2.688 0.719,0.825 1.453,1.624 2.192,2.415 1.478,1.574 2.987,3.08 4.532,4.502 3.082,2.845 6.279,5.371 9.535,7.463 6.463,4.195 13.337,6.611 18.977,6.093 2.806,-0.248 5.256,-1.186 7.254,-2.655 2.028,-1.469 3.571,-3.362 4.481,-5.22 1.878,-3.762 1.197,-7.652 0.505,-10.261 -0.721,-2.643 -1.301,-4.213 -0.804,-4.562 0.439,-0.321 1.914,0.56 3.745,3.144 0.888,1.303 1.852,3.073 2.443,5.434 0.594,2.336 0.722,5.333 -0.193,8.427 -0.907,3.093 -2.729,6.141 -5.43,8.729 -2.693,2.628 -6.506,4.651 -10.694,5.456 -4.187,0.822 -8.639,0.543 -12.934,-0.485 -4.31,-1.024 -8.51,-2.77 -12.544,-4.982 C 60.015,12.094 56.146,9.397 52.452,6.355 50.604,4.836 48.804,3.227 47.05,1.541 46.176,0.695 45.305,-0.162 44.455,-1.044 L 42.087,-3.448 C 35.755,-9.697 28.55,-15.557 20.89,-20.532 c -7.651,-4.949 -15.855,-9.055 -23.943,-11.13 -4.03,-1.028 -8.007,-1.519 -11.675,-1.289 -3.676,0.218 -7.003,1.153 -9.877,2.75 -1.444,0.794 -2.763,1.744 -3.971,2.807 -1.218,1.081 -2.311,2.242 -3.169,3.395 -1.754,2.325 -2.74,4.742 -3.116,7.104 -0.761,4.736 0.996,9.292 3.543,12.49 2.569,3.244 5.808,5.182 8.776,6.144 3,0.972 5.799,1.034 8.211,0.768 2.42,-0.272 4.465,-0.865 6.164,-1.411 1.698,-0.552 3.06,-1.061 4.163,-1.383 C -1.805,-0.959 -0.614,-0.848 0,0" /></g><g
           transform="translate(389.7187,288.8925)"
           id="g50"><path
             id="path52"
             style="fill:#ffde8e;fill-opacity:1;fill-rule:nonzero;stroke:none"
             d="m 0,0 c 2.564,-0.481 0.387,-23.609 -3.78,-45.831 -4.165,-22.232 -10.5,-44.581 -13.065,-44.1 -2.57,0.48 -0.387,23.608 3.776,45.84 C -8.904,-21.867 -2.568,0.48 0,0" /></g><g
           transform="translate(386.8135,275.6972)"
           id="g54"><path
             id="path56"
             style="fill:#f09c00;fill-opacity:1;fill-rule:nonzero;stroke:none"
             d="m 0,0 c 0,0 -9.247,-9.319 -24.372,-12.771 -15.121,-3.457 -58.808,5.401 -72.855,11.857 -7.15,4.214 -15.295,14.195 -18.808,18.761 -21.997,33.215 -80.532,71.008 -154.382,84.839 0,0 -15.848,-35.162 -24.36,-80.605 -8.513,-45.435 -6.464,-83.948 -6.464,-83.948 73.171,-13.706 140.858,0.114 173.733,22.704 4.294,2.62 16.36,9.615 25.084,11.09 15.26,0.92 61.622,-7.218 72.515,-15.463 10.89,-8.248 17.829,-20.42 17.829,-20.42 0.075,-0.228 0.169,-0.371 0.292,-0.396 1.572,-0.29 6.325,18.051 8.884,31.709 2.557,13.655 4.765,32.474 3.193,32.768 L 0.294,0.155 0.216,0.114 C 0.151,0.103 0.078,0.07 0,0" /></g><g
           transform="translate(116.459,378.7231)"
           id="g58"><path
             id="path60"
             style="fill:#ffc61c;fill-opacity:1;fill-rule:nonzero;stroke:none"
             d="m 0,0 c 98.739,-18.494 170.105,-79.815 163.368,-115.767 -6.682,-35.658 -95.452,-67.278 -194.192,-48.783 0,0 -2.044,38.512 6.465,83.947 C -15.847,-35.161 0,0 0,0" /></g><g
           transform="translate(120.3984,353.142)"
           id="g62"><path
             id="path64"
             style="fill:#ffa600;fill-opacity:1;fill-rule:nonzero;stroke:none"
             d="m 0,0 c 77.467,-9.069 159.868,-49.621 155.194,-100.452 2.146,3.357 3.585,6.791 4.234,10.266 6.738,35.952 -64.629,97.273 -163.367,115.767 z" /></g><g
           transform="translate(116.9448,378.2797)"
           id="g66"><path
             id="path68"
             style="fill:#f09c00;fill-opacity:1;fill-rule:nonzero;stroke:none"
             d="m 0,0 c 6.208,-1.163 4.342,-38.943 -4.169,-84.384 -8.512,-45.435 -20.446,-81.328 -26.655,-80.166 -6.208,1.161 -4.343,38.94 4.168,84.377 C -18.142,-34.732 -6.209,1.163 0,0" /></g><g
           transform="translate(268.0605,253.0136)"
           id="g70"><path
             id="path72"
             style="fill:#ffe199;fill-opacity:1;fill-rule:nonzero;stroke:none"
             d="m 0,0 c -4.719,-5.399 -10.449,-9.935 -16.605,-13.736 -6.166,-3.808 -12.765,-6.916 -19.545,-9.524 -13.589,-5.191 -27.872,-8.449 -42.296,-10.483 -14.442,-2.004 -29.074,-2.782 -43.783,-2.251 -7.356,0.277 -14.734,0.888 -22.146,1.996 -7.417,1.141 -14.85,2.676 -22.422,5.468 l 5.43,15.465 c 5.631,-2.752 13.256,-4.839 19.853,-6.513 6.626,-1.668 13.455,-2.921 20.352,-3.86 13.806,-1.863 27.898,-2.504 41.953,-1.939 14.049,0.595 28.123,2.38 41.744,6.106 6.799,1.877 13.482,4.256 19.843,7.373 C -11.27,-8.785 -5.225,-4.911 0,0" /></g><g
           transform="translate(204.7046,268.2695)"
           id="g74"><path
             id="path76"
             style="fill:#fff7e3;fill-opacity:1;fill-rule:nonzero;stroke:none"
             d="m 0,0 c 0.318,-0.058 0.45,-0.218 0.401,-0.474 l -5.092,-27.171 c -0.078,-0.422 -0.305,-0.594 -0.685,-0.523 l -1.846,0.346 c -0.377,0.072 -0.528,0.315 -0.45,0.734 l 1.513,8.075 c 0.098,0.513 -0.71,0.927 -2.41,1.247 -0.348,0.067 -7.369,1.412 -21.072,4.048 -13.7,2.629 -20.755,3.985 -21.163,4.062 -4.643,0.869 -7.556,1.348 -8.748,1.437 -2.187,0.177 -3.555,-1.194 -4.103,-4.11 l -0.63,-3.365 c -0.07,-0.387 -0.296,-0.543 -0.675,-0.473 l -1.94,0.362 c -0.38,0.072 -0.534,0.3 -0.462,0.684 l 1.02,5.435 c 0.835,4.461 1.271,7.705 1.307,9.741 0.039,2.035 0.053,3.019 0.04,2.956 0.097,0.513 0.477,0.707 1.141,0.582 -0.066,0.013 7.505,-1.555 22.708,-4.702 15.206,-3.146 23.406,-4.831 24.606,-5.055 8.238,-1.543 12.504,-1.528 12.798,0.043 l 1.145,6.109 c 0.059,0.322 0.245,0.452 0.563,0.394 z" /></g><g
           transform="translate(181.2129,297.4716)"
           id="g78"><path
             id="path80"
             style="fill:#fff7e3;fill-opacity:1;fill-rule:nonzero;stroke:none"
             d="m 0,0 c 0.478,-0.089 0.889,-0.383 1.231,-0.89 0.338,-0.506 0.464,-1.003 0.371,-1.491 -0.223,-1.202 -1.364,-2.134 -3.42,-2.801 -0.405,-0.143 -0.649,-0.442 -0.735,-0.905 -0.256,-1.365 -0.044,-2.637 0.628,-3.816 0.675,-1.179 1.637,-1.885 2.888,-2.119 2.16,-0.407 4.154,0.131 5.987,1.606 1.659,1.316 3.145,2.534 4.462,3.652 2.846,2.386 5.932,3.267 9.252,2.647 2.455,-0.462 4.273,-1.83 5.447,-4.11 1.086,-2.117 1.379,-4.517 0.876,-7.197 -0.476,-2.546 -1.356,-4.534 -2.636,-5.969 -1.187,-1.309 -2.394,-1.847 -3.623,-1.618 -1.388,0.261 -1.943,1.127 -1.665,2.61 0.208,1.109 1.891,1.989 5.05,2.643 0.346,0.076 0.594,0.29 0.756,0.632 0.156,0.339 0.307,0.89 0.45,1.653 0.31,1.667 0.052,3.176 -0.777,4.524 -0.832,1.352 -1.939,2.161 -3.325,2.42 -2.366,0.442 -4.527,-0.157 -6.484,-1.8 -0.972,-0.8 -2.351,-1.943 -4.137,-3.426 -2.612,-2.265 -5.353,-3.124 -8.219,-2.588 -2.408,0.449 -4.233,1.701 -5.475,3.752 -1.241,2.052 -1.626,4.349 -1.148,6.893 C -3.463,-1.514 -2.044,0.386 0,0" /></g><g
           transform="translate(183.7358,321.3056)"
           id="g82"><path
             id="path84"
             style="fill:#fff7e3;fill-opacity:1;fill-rule:nonzero;stroke:none"
             d="M 0,0 C 0.121,-0.119 0.392,-0.36 0.818,-0.731 1.142,-1.005 1.256,-1.398 1.16,-1.905 l -1.291,-6.903 c -0.052,-0.278 0.032,-0.461 0.25,-0.548 4.443,-1.672 10.478,-3.831 18.103,-6.481 0.846,-0.252 1.884,-0.494 3.113,-0.723 1.412,-0.266 2.368,-0.301 2.876,-0.111 0.837,0.324 1.322,0.841 1.456,1.56 0.27,1.432 -0.318,3.458 -1.758,6.072 -0.221,0.329 -0.412,0.686 -0.576,1.078 -0.074,0.108 -0.029,0.219 0.134,0.334 0.271,0.187 0.507,0.311 0.704,0.371 0.054,0.036 0.119,0.061 0.192,0.069 0.478,-0.087 1.297,-1.428 2.462,-4.015 1.433,-3.162 1.908,-6.017 1.433,-8.56 -0.139,-0.739 -0.475,-1.275 -1.008,-1.605 -0.874,-0.506 -2.217,-0.59 -4.037,-0.248 -2.14,0.402 -4.16,0.922 -6.062,1.565 -4.36,1.487 -10.276,3.647 -17.749,6.484 -0.264,0.097 -0.419,0.03 -0.462,-0.203 l -0.611,-3.257 c -0.092,-0.486 -0.268,-0.68 -0.533,-0.581 -0.261,0.118 -0.663,0.29 -1.209,0.511 -0.251,0.169 -0.35,0.39 -0.3,0.666 l 0.613,3.261 c 0.059,0.323 0.025,0.521 -0.101,0.595 -0.241,0.116 -1.542,0.635 -3.912,1.556 -0.678,0.27 -1.047,0.757 -1.104,1.463 -0.054,0.583 -0.065,1.545 -0.027,2.877 -0.002,0.241 0.072,0.412 0.222,0.514 0.151,0.105 0.319,0.103 0.51,-0.005 1.321,-0.75 2.814,-1.375 4.485,-1.878 0.559,-0.155 0.86,-0.128 0.9,0.079 0.046,0.255 0.278,1.551 0.69,3.889 0.418,2.343 0.646,3.628 0.689,3.858 C -0.679,0.149 -0.431,0.221 0,0" /></g><g
           transform="translate(331.0811,281.9008)"
           id="g86"><path
             id="path88"
             style="fill:#f7d5a8;fill-opacity:1;fill-rule:nonzero;stroke:none"
             d="m 0,0 -0.062,-5.399 -0.294,0.023 0.086,7.867 c 0.043,5.503 -4.333,10.013 -9.78,10.059 -5.44,0.043 -9.895,-4.391 -9.947,-9.896 l -0.07,-8.08 -0.159,0.011 0.042,4.97 c 0.048,5.634 -4.417,10.235 -9.978,10.278 -5.556,0.046 -9.329,-5.056 -9.388,-10.685 1.488,-9.541 2.257,-28.121 2.155,-34.599 0,0 -8.045,3.291 -16.773,-0.819 0,0 1.971,-9.688 3.548,-14.342 2.518,-7.426 7.934,-14.364 17.834,-17.324 7.234,-1.769 7.938,-24.779 7.938,-24.779 l 45.46,-0.636 c 0,0 1.694,18.465 3.166,26.51 1.054,5.779 13.984,19.015 13.457,44.093 0,0 0.955,10.429 -0.618,15.789 C 34.688,-0.377 32.469,4.237 27.724,4.064 20.104,3.784 20,-1.61 19.55,-6.544 l 0.019,3.218 C 19.621,2.145 15.277,9.783 9.872,9.828 4.472,9.873 0.048,5.47 0,0" /></g><g
           transform="translate(289.5869,274.7836)"
           id="g90"><path
             id="path92"
             style="fill:#f7d5a8;fill-opacity:1;fill-rule:nonzero;stroke:none"
             d="m 0,0 c 0.453,-0.208 0.938,-0.419 1.451,-0.631 0.157,1.694 0.134,3.651 0.134,5.505 0,4.692 0.167,9.004 -2.891,9.004 -3.874,0 -5.899,-3.37 -6.944,-7.212 C -5.561,4.022 -2.709,1.597 0,0" /></g><g
           transform="translate(362.4453,0.0175)"
           id="g94"><path
             id="path96"
             style="fill:#17afbc;fill-opacity:1;fill-rule:nonzero;stroke:none"
             d="m 0,0 v 205.254 l -71.585,-0.017 V 0 Z" /></g><path
           id="path98"
           style="fill:#149ba6;fill-opacity:1;fill-rule:nonzero;stroke:none"
           d="M 362.793,205.292 H 326.476 V 0 h 36.317 z" /><g
           transform="translate(349.9111,183.1308)"
           id="g100"><path
             id="path102"
             style="fill:#defbff;fill-opacity:1;fill-rule:nonzero;stroke:none"
             d="M 0,0 C 2.418,-0.03 4.354,-2.012 4.327,-4.432 4.298,-6.848 2.313,-8.785 -0.104,-8.757 -2.522,-8.728 -4.46,-6.745 -4.43,-4.325 -4.402,-1.909 -2.419,0.029 0,0" /></g><g
           transform="translate(350.0781,197.0791)"
           id="g104"><path
             id="path106"
             style="fill:#defbff;fill-opacity:1;fill-rule:nonzero;stroke:none"
             d="M 0,0 C 2.419,-0.029 4.354,-2.014 4.325,-4.435 4.297,-6.851 2.313,-8.785 -0.104,-8.758 -2.522,-8.73 -4.461,-6.747 -4.433,-4.327 -4.403,-1.907 -2.419,0.027 0,0" /></g><path
           id="path108"
           style="fill:#ffffff;fill-opacity:1;fill-rule:nonzero;stroke:none"
           d="M 355.578,205.292 H 297.98 v 5.798 h 57.598 z" /></g></g><g
       transform="translate(268.0605,318.5053)"
       id="g110"><path
         id="path112"
         style="fill:#ffffff;fill-opacity:1;fill-rule:nonzero;stroke:none"
         d="m 0,0 -15.803,0.361 -3.792,-15.346 0.362,15.803 -15.345,3.792 15.801,-0.36 3.79,15.344 -0.359,-15.802 z" /></g><g
       id="g114"><g
         clip-path="url(#clipPath120)"
         id="g116"><g
           transform="translate(74.6074,215.7089)"
           id="g122"><path
             id="path124"
             style="fill:#ffffff;fill-opacity:1;fill-rule:nonzero;stroke:none"
             d="m 0,0 c 0,0 10.247,0.036 13.023,1.844 2.778,1.807 5.003,12.169 5.003,12.169 0,0 -0.09,-10.409 1.843,-13.028 1.934,-2.617 12.171,-4.997 12.171,-4.997 0,0 -10.01,-0.133 -13.028,-1.844 -3.017,-1.711 -4.997,-12.17 -4.997,-12.17 0,0 0.325,10.313 -1.848,13.026 C 9.993,-2.285 0,0 0,0" /></g><g
           transform="translate(77.9478,234.6679)"
           id="g126"><path
             id="path128"
             style="fill:#ffffff;fill-opacity:1;fill-rule:nonzero;stroke:none"
             d="m 0,0 c 0,0 4.055,0.015 5.154,0.729 1.099,0.716 1.98,4.817 1.98,4.817 0,0 -0.036,-4.119 0.729,-5.155 0.765,-1.037 4.817,-1.979 4.817,-1.979 0,0 -3.962,-0.052 -5.156,-0.73 -1.194,-0.677 -1.978,-4.816 -1.978,-4.816 0,0 0.129,4.08 -0.731,5.155 C 3.955,-0.905 0,0 0,0" /></g></g></g></g></svg>