<?xml version="1.0" encoding="iso-8859-1"?>
<!-- Generator: Adobe Illustrator 18.0.0, SVG Export Plug-In . SVG Version: 6.00 Build 0)  -->
<!DOCTYPE svg PUBLIC "-//W3C//DTD SVG 1.1//EN" "http://www.w3.org/Graphics/SVG/1.1/DTD/svg11.dtd">
<svg version="1.1" xmlns="http://www.w3.org/2000/svg" xmlns:xlink="http://www.w3.org/1999/xlink" x="0px" y="0px" width="2800px"
	 height="2800px" viewBox="0 0 2800 2800" enable-background="new 0 0 2800 2800" xml:space="preserve">
<g id="BACKGROUND">
	<g>
		<g>
			<linearGradient id="SVGID_1_" gradientUnits="userSpaceOnUse" x1="-1.257104e-07" y1="1.257094e-07" x2="2800" y2="2800">
				<stop  offset="0" style="stop-color:#FFFF80"/>
				<stop  offset="1" style="stop-color:#38CAFF"/>
			</linearGradient>
			<rect fill="url(#SVGID_1_)" width="2800" height="2800"/>
		</g>
		<circle opacity="0.3" fill="#FFFFFF" cx="1400" cy="1400" r="1177.3"/>
	</g>
</g>
<g id="OBJECTS">
	<g>
		<g>
			<rect x="919.2" y="176.3" fill="#222B2B" width="961.6" height="778.1"/>
			<rect x="919.2" y="176.3" fill="#405463" width="961.6" height="46.4"/>
			<g>
				<rect x="937" y="251.8" fill="#405463" width="17.8" height="664.6"/>
				<g>
					<rect x="972.5" y="251.8" fill="#405463" width="17.8" height="17.8"/>
					<rect x="972.5" y="289.9" fill="#405463" width="17.8" height="17.8"/>
					<rect x="972.5" y="327.9" fill="#405463" width="17.8" height="17.8"/>
					<rect x="972.5" y="366" fill="#405463" width="17.8" height="17.8"/>
					<rect x="972.5" y="404" fill="#405463" width="17.8" height="17.8"/>
					<rect x="972.5" y="442.1" fill="#405463" width="17.8" height="17.8"/>
					<rect x="972.5" y="480.1" fill="#405463" width="17.8" height="17.8"/>
					<rect x="972.5" y="518.2" fill="#405463" width="17.8" height="17.8"/>
					<rect x="972.5" y="556.2" fill="#405463" width="17.8" height="17.8"/>
					<rect x="972.5" y="594.3" fill="#405463" width="17.8" height="17.8"/>
					<rect x="972.5" y="632.3" fill="#405463" width="17.8" height="17.8"/>
					<rect x="972.5" y="670.4" fill="#405463" width="17.8" height="17.8"/>
					<rect x="972.5" y="708.4" fill="#405463" width="17.8" height="17.8"/>
					<rect x="972.5" y="746.5" fill="#405463" width="17.8" height="17.8"/>
					<rect x="972.5" y="784.5" fill="#405463" width="17.8" height="17.8"/>
					<rect x="972.5" y="822.6" fill="#405463" width="17.8" height="17.8"/>
					<rect x="972.5" y="860.6" fill="#405463" width="17.8" height="17.8"/>
					<rect x="972.5" y="898.7" fill="#405463" width="17.8" height="17.8"/>
				</g>
			</g>
			<g>
				<rect x="1007.8" y="251.8" fill="#D71440" width="262.9" height="17.8"/>
				<rect x="1007.8" y="289.9" fill="#D71440" width="338.4" height="17.8"/>
				<rect x="1007.8" y="327.9" fill="#D71440" width="262.9" height="17.8"/>
				<rect x="1043.4" y="366" fill="#405463" width="17.8" height="17.8"/>
				<rect x="1061.1" y="404" fill="#00A188" width="563.2" height="17.8"/>
				<rect x="1061.1" y="442.1" fill="#00A188" width="448.5" height="17.8"/>
				<rect x="1061.1" y="708.4" fill="#00A188" width="331.4" height="17.8"/>
				<rect x="1061.1" y="746.5" fill="#00A188" width="263.9" height="17.8"/>
				<rect x="1078.9" y="480.1" fill="#F79548" width="697.3" height="17.8"/>
				<rect x="1078.9" y="518.2" fill="#F79548" width="545.4" height="17.8"/>
				<rect x="1078.9" y="556.2" fill="#F79548" width="430.7" height="17.8"/>
				<rect x="1078.9" y="594.3" fill="#F79548" width="697.3" height="17.8"/>
				<rect x="1078.9" y="632.3" fill="#F79548" width="545.4" height="17.8"/>
				<rect x="1078.9" y="670.4" fill="#F79548" width="430.7" height="17.8"/>
				<rect x="1043.4" y="784.5" fill="#405463" width="17.8" height="17.8"/>
				<rect x="1007.8" y="822.6" fill="#D71440" width="131.4" height="17.8"/>
				<rect x="1061.1" y="860.6" fill="#00A188" width="233.1" height="17.8"/>
				<rect x="1061.1" y="898.7" fill="#00A188" width="78.2" height="17.8"/>
			</g>
			<circle fill="#D71440" cx="945.9" cy="199.5" r="12.2"/>
			<circle fill="#F79548" cx="981.4" cy="199.5" r="12.2"/>
			<circle fill="#00A188" cx="1016.9" cy="199.5" r="12.2"/>
		</g>
		<g>
			<g>
				<rect x="106.3" y="746.5" fill="#FFFFFF" width="961.6" height="778.1"/>
				<rect x="106.3" y="746.5" fill="#405463" width="961.6" height="46.4"/>
				<g>
					<rect x="124.1" y="822" fill="#405463" width="17.8" height="664.6"/>
					<g>
						<rect x="159.6" y="822" fill="#405463" width="17.8" height="17.8"/>
						<rect x="159.6" y="860" fill="#405463" width="17.8" height="17.8"/>
						<rect x="159.6" y="898.1" fill="#405463" width="17.8" height="17.8"/>
						<rect x="159.6" y="936.1" fill="#405463" width="17.8" height="17.8"/>
						<rect x="159.6" y="974.2" fill="#405463" width="17.8" height="17.8"/>
						<rect x="159.6" y="1012.2" fill="#405463" width="17.8" height="17.8"/>
						<rect x="159.6" y="1050.3" fill="#405463" width="17.8" height="17.8"/>
						<rect x="159.6" y="1088.3" fill="#405463" width="17.8" height="17.8"/>
						<rect x="159.6" y="1126.4" fill="#405463" width="17.8" height="17.8"/>
						<rect x="159.6" y="1164.4" fill="#405463" width="17.8" height="17.8"/>
						<rect x="159.6" y="1202.4" fill="#405463" width="17.8" height="17.8"/>
						<rect x="159.6" y="1240.5" fill="#405463" width="17.8" height="17.8"/>
						<rect x="159.6" y="1278.5" fill="#405463" width="17.8" height="17.8"/>
						<rect x="159.6" y="1316.6" fill="#405463" width="17.8" height="17.8"/>
						<rect x="159.6" y="1354.6" fill="#405463" width="17.8" height="17.8"/>
						<rect x="159.6" y="1392.7" fill="#405463" width="17.8" height="17.8"/>
						<rect x="159.6" y="1430.7" fill="#405463" width="17.8" height="17.8"/>
						<rect x="159.6" y="1468.8" fill="#405463" width="17.8" height="17.8"/>
					</g>
				</g>
				<g>
					<rect x="195" y="822" fill="#D71440" width="262.9" height="17.8"/>
					<rect x="195" y="860" fill="#D71440" width="338.4" height="17.8"/>
					<rect x="195" y="898.1" fill="#D71440" width="262.9" height="17.8"/>
					<rect x="230.5" y="936.1" fill="#405463" width="17.8" height="17.8"/>
					<rect x="248.2" y="974.2" fill="#00A188" width="563.2" height="17.8"/>
					<rect x="248.2" y="1012.2" fill="#00A188" width="448.5" height="17.8"/>
					<rect x="248.2" y="1278.5" fill="#00A188" width="331.4" height="17.8"/>
					<rect x="248.2" y="1316.6" fill="#00A188" width="263.9" height="17.8"/>
					<rect x="266" y="1050.3" fill="#F79548" width="697.3" height="17.8"/>
					<rect x="266" y="1088.3" fill="#F79548" width="545.4" height="17.8"/>
					<rect x="266" y="1126.4" fill="#F79548" width="430.7" height="17.8"/>
					<rect x="266" y="1164.4" fill="#F79548" width="697.3" height="17.8"/>
					<rect x="266" y="1202.4" fill="#F79548" width="545.4" height="17.8"/>
					<rect x="266" y="1240.5" fill="#F79548" width="430.7" height="17.8"/>
					<rect x="230.5" y="1354.6" fill="#405463" width="17.8" height="17.8"/>
					<rect x="195" y="1392.7" fill="#D71440" width="131.4" height="17.8"/>
					<rect x="248.2" y="1430.7" fill="#00A188" width="233.1" height="17.8"/>
					<rect x="248.2" y="1468.8" fill="#00A188" width="78.2" height="17.8"/>
				</g>
				<circle fill="#D71440" cx="133" cy="769.7" r="12.2"/>
				<circle fill="#F79548" cx="168.5" cy="769.7" r="12.2"/>
				<circle fill="#00A188" cx="204" cy="769.7" r="12.2"/>
			</g>
			<g>
				<rect x="1732.1" y="480.1" fill="#FFFFFF" width="961.6" height="578.9"/>
				<rect x="1732.1" y="480.1" fill="#405463" width="961.6" height="46.4"/>
				<g>
					<rect x="1749.9" y="555.6" fill="#405463" width="17.8" height="474.3"/>
					<g>
						<rect x="1785.4" y="555.6" fill="#405463" width="17.8" height="17.8"/>
						<rect x="1785.4" y="593.7" fill="#405463" width="17.8" height="17.8"/>
						<rect x="1785.4" y="631.7" fill="#405463" width="17.8" height="17.8"/>
						<rect x="1785.4" y="669.8" fill="#405463" width="17.8" height="17.8"/>
						<rect x="1785.4" y="707.8" fill="#405463" width="17.8" height="17.8"/>
						<rect x="1785.4" y="745.9" fill="#405463" width="17.8" height="17.8"/>
						<rect x="1785.4" y="783.9" fill="#405463" width="17.8" height="17.8"/>
						<rect x="1785.4" y="822" fill="#405463" width="17.8" height="17.8"/>
						<rect x="1785.4" y="860" fill="#405463" width="17.8" height="17.8"/>
						<rect x="1785.4" y="898.1" fill="#405463" width="17.8" height="17.8"/>
						<rect x="1785.4" y="936.1" fill="#405463" width="17.8" height="17.8"/>
						<rect x="1785.4" y="974.2" fill="#405463" width="17.8" height="17.8"/>
						<rect x="1785.4" y="1012.2" fill="#405463" width="17.8" height="17.8"/>
					</g>
				</g>
				<g>
					<rect x="1820.7" y="555.6" fill="#D71440" width="262.9" height="17.8"/>
					<rect x="1820.7" y="593.7" fill="#D71440" width="338.4" height="17.8"/>
					<rect x="1820.7" y="631.7" fill="#D71440" width="262.9" height="17.8"/>
					<rect x="1856.2" y="669.8" fill="#405463" width="17.8" height="17.8"/>
					<rect x="1874" y="707.8" fill="#00A188" width="563.2" height="17.8"/>
					<rect x="1874" y="745.9" fill="#00A188" width="448.5" height="17.8"/>
					<rect x="1891.7" y="783.9" fill="#F79548" width="697.3" height="17.8"/>
					<rect x="1891.7" y="822" fill="#F79548" width="545.4" height="17.8"/>
					<rect x="1891.7" y="860" fill="#F79548" width="430.7" height="17.8"/>
					<rect x="1856.2" y="898.1" fill="#405463" width="17.8" height="17.8"/>
					<rect x="1820.7" y="936.1" fill="#D71440" width="131.4" height="17.8"/>
					<rect x="1874" y="974.2" fill="#00A188" width="233.1" height="17.8"/>
					<rect x="1874" y="1012.2" fill="#00A188" width="78.2" height="17.8"/>
				</g>
				<circle fill="#D71440" cx="1758.7" cy="503.3" r="12.2"/>
				<circle fill="#F79548" cx="1794.2" cy="503.3" r="12.2"/>
				<circle fill="#00A188" cx="1829.8" cy="503.3" r="12.2"/>
			</g>
		</g>
		<g>
			<g>
				<rect x="340" y="1629.8" fill="#222B2B" width="961.6" height="578.9"/>
				<rect x="340" y="1629.8" fill="#405463" width="961.6" height="46.4"/>
				<g>
					<rect x="357.7" y="1705.3" fill="#405463" width="17.8" height="474.3"/>
					<g>
						<rect x="393.2" y="1705.3" fill="#405463" width="17.8" height="17.8"/>
						<rect x="393.2" y="1743.4" fill="#405463" width="17.8" height="17.8"/>
						<rect x="393.2" y="1781.4" fill="#405463" width="17.8" height="17.8"/>
						<rect x="393.2" y="1819.5" fill="#405463" width="17.8" height="17.8"/>
						<rect x="393.2" y="1857.5" fill="#405463" width="17.8" height="17.8"/>
						<rect x="393.2" y="1895.6" fill="#405463" width="17.8" height="17.8"/>
						<rect x="393.2" y="1933.6" fill="#405463" width="17.8" height="17.8"/>
						<rect x="393.2" y="1971.6" fill="#405463" width="17.8" height="17.8"/>
						<rect x="393.2" y="2009.7" fill="#405463" width="17.8" height="17.8"/>
						<rect x="393.2" y="2047.7" fill="#405463" width="17.8" height="17.8"/>
						<rect x="393.2" y="2085.8" fill="#405463" width="17.8" height="17.8"/>
						<rect x="393.2" y="2123.8" fill="#405463" width="17.8" height="17.8"/>
						<rect x="393.2" y="2161.9" fill="#405463" width="17.8" height="17.8"/>
					</g>
				</g>
				<g>
					<rect x="428.6" y="1705.3" fill="#D71440" width="262.9" height="17.8"/>
					<rect x="428.6" y="1743.4" fill="#D71440" width="338.4" height="17.8"/>
					<rect x="428.6" y="1781.4" fill="#D71440" width="262.9" height="17.8"/>
					<rect x="464.1" y="1819.5" fill="#405463" width="17.8" height="17.8"/>
					<rect x="481.8" y="1857.5" fill="#00A188" width="563.2" height="17.8"/>
					<rect x="481.8" y="1895.6" fill="#00A188" width="448.5" height="17.8"/>
					<rect x="499.6" y="1933.6" fill="#F79548" width="697.3" height="17.8"/>
					<rect x="499.6" y="1971.6" fill="#F79548" width="545.4" height="17.8"/>
					<rect x="499.6" y="2009.7" fill="#F79548" width="430.7" height="17.8"/>
					<rect x="464.1" y="2047.7" fill="#405463" width="17.8" height="17.8"/>
					<rect x="428.6" y="2085.8" fill="#D71440" width="131.4" height="17.8"/>
					<rect x="481.8" y="2123.8" fill="#00A188" width="233.1" height="17.8"/>
					<rect x="481.8" y="2161.9" fill="#00A188" width="78.2" height="17.8"/>
				</g>
				<circle fill="#D71440" cx="366.6" cy="1653" r="12.2"/>
				<circle fill="#F79548" cx="402.1" cy="1653" r="12.2"/>
				<circle fill="#00A188" cx="437.6" cy="1653" r="12.2"/>
			</g>
			<g>
				<rect x="1498.5" y="1272.7" fill="#222B2B" width="961.6" height="578.9"/>
				<rect x="1498.5" y="1272.7" fill="#405463" width="961.6" height="46.4"/>
				<g>
					<rect x="1516.2" y="1348.2" fill="#405463" width="17.8" height="474.3"/>
					<g>
						<rect x="1551.8" y="1348.2" fill="#405463" width="17.8" height="17.8"/>
						<rect x="1551.8" y="1386.2" fill="#405463" width="17.8" height="17.8"/>
						<rect x="1551.8" y="1424.3" fill="#405463" width="17.8" height="17.8"/>
						<rect x="1551.8" y="1462.3" fill="#405463" width="17.8" height="17.8"/>
						<rect x="1551.8" y="1500.4" fill="#405463" width="17.8" height="17.8"/>
						<rect x="1551.8" y="1538.4" fill="#405463" width="17.8" height="17.8"/>
						<rect x="1551.8" y="1576.5" fill="#405463" width="17.8" height="17.8"/>
						<rect x="1551.8" y="1614.5" fill="#405463" width="17.8" height="17.8"/>
						<rect x="1551.8" y="1652.6" fill="#405463" width="17.8" height="17.8"/>
						<rect x="1551.8" y="1690.6" fill="#405463" width="17.8" height="17.8"/>
						<rect x="1551.8" y="1728.7" fill="#405463" width="17.8" height="17.8"/>
						<rect x="1551.8" y="1766.7" fill="#405463" width="17.8" height="17.8"/>
						<rect x="1551.8" y="1804.8" fill="#405463" width="17.8" height="17.8"/>
					</g>
				</g>
				<g>
					<rect x="1587.1" y="1348.2" fill="#D71440" width="262.9" height="17.8"/>
					<rect x="1587.1" y="1386.2" fill="#D71440" width="338.4" height="17.8"/>
					<rect x="1587.1" y="1424.3" fill="#D71440" width="262.9" height="17.8"/>
					<rect x="1622.6" y="1462.3" fill="#405463" width="17.8" height="17.8"/>
					<rect x="1640.4" y="1500.4" fill="#00A188" width="563.2" height="17.8"/>
					<rect x="1640.4" y="1538.4" fill="#00A188" width="448.5" height="17.8"/>
					<rect x="1658.1" y="1576.5" fill="#F79548" width="697.3" height="17.8"/>
					<rect x="1658.1" y="1614.5" fill="#F79548" width="545.4" height="17.8"/>
					<rect x="1658.1" y="1652.6" fill="#F79548" width="430.7" height="17.8"/>
					<rect x="1622.6" y="1690.6" fill="#405463" width="17.8" height="17.8"/>
					<rect x="1587.1" y="1728.7" fill="#D71440" width="131.4" height="17.8"/>
					<rect x="1640.4" y="1766.7" fill="#00A188" width="233.1" height="17.8"/>
					<rect x="1640.4" y="1804.8" fill="#00A188" width="78.2" height="17.8"/>
				</g>
				<circle fill="#D71440" cx="1525.1" cy="1295.9" r="12.2"/>
				<circle fill="#F79548" cx="1560.6" cy="1295.9" r="12.2"/>
				<circle fill="#00A188" cx="1596.2" cy="1295.9" r="12.2"/>
			</g>
		</g>
	</g>
	<g>
		<linearGradient id="SVGID_2_" gradientUnits="userSpaceOnUse" x1="602.73" y1="1808.1902" x2="2197.27" y2="3402.73">
			<stop  offset="0" style="stop-color:#6A7490"/>
			<stop  offset="1" style="stop-color:#283453"/>
		</linearGradient>
		<rect y="2410.9" fill="url(#SVGID_2_)" width="2800" height="389.1"/>
		<rect y="2436.4" opacity="0.2" width="2800" height="146.7"/>
		<linearGradient id="SVGID_3_" gradientUnits="userSpaceOnUse" x1="675.2818" y1="1735.6384" x2="2124.7183" y2="3185.0747">
			<stop  offset="0" style="stop-color:#6A7490"/>
			<stop  offset="1" style="stop-color:#283453"/>
		</linearGradient>
		<rect y="2410.9" fill="url(#SVGID_3_)" width="2800" height="98.9"/>
	</g>
	<g>
		<linearGradient id="XMLID_2_" gradientUnits="userSpaceOnUse" x1="1091.5061" y1="863.4887" x2="1722.5559" y2="1494.5385">
			<stop  offset="0" style="stop-color:#C6426E"/>
			<stop  offset="1" style="stop-color:#642B73"/>
		</linearGradient>
		<path id="XMLID_50_" fill="url(#XMLID_2_)" d="M1708.4,973.3c-42-200.6-85.5-272.8-211.6-262.6c0,0-15-65.2-142.5-31
			c-127.5,34.3-220.6,93-262.6,293.6s-162.1,626.4,226.6,626.4c37.5,0,81.8,0,81.8,0s44.3,0,81.8,0
			C1870.4,1599.7,1750.4,1174,1708.4,973.3z"/>
		<linearGradient id="SVGID_4_" gradientUnits="userSpaceOnUse" x1="624.6972" y1="1837.1799" x2="2175.3027" y2="1837.1799">
			<stop  offset="0" style="stop-color:#FFDFB4"/>
			<stop  offset="0.2129" style="stop-color:#FEDAB0"/>
			<stop  offset="0.4519" style="stop-color:#FDCDA5"/>
			<stop  offset="0.7034" style="stop-color:#FAB693"/>
			<stop  offset="0.9622" style="stop-color:#F79779"/>
			<stop  offset="1" style="stop-color:#F69275"/>
		</linearGradient>
		<path fill="url(#SVGID_4_)" d="M2162.5,2229.9l-269.3-554.8c-26-53.6-76.2-91.5-135-101.8l-157.4-27.5
			c-48.8-8.5-84.4-50.9-84.4-100.4v-181.9h-232.9v181.9c0,49.5-35.6,91.9-84.4,100.4l-157.4,27.5c-58.7,10.3-108.9,48.1-135,101.8
			l-269.3,554.8c-40.6,83.7,20.3,181,113.4,181H1400h649.1C2142.2,2410.9,2203.1,2313.6,2162.5,2229.9z"/>
		<linearGradient id="SVGID_5_" gradientUnits="userSpaceOnUse" x1="624.6972" y1="1993.6027" x2="2175.3027" y2="1993.6027">
			<stop  offset="1.075269e-02" style="stop-color:#00A2FF"/>
			<stop  offset="1" style="stop-color:#002863"/>
		</linearGradient>
		<path fill="url(#SVGID_5_)" d="M2162.5,2229.9l-269.3-554.8c-24-49.4-68.4-85.4-121.2-98.8c-93,51.4-225.3,83.5-372,83.5
			s-279-32.1-372-83.5c-52.7,13.4-97.2,49.4-121.2,98.8l-269.3,554.8c-40.6,83.7,20.3,181,113.4,181H1400h649.1
			C2142.2,2410.9,2203.1,2313.6,2162.5,2229.9z"/>
		<g>
			<linearGradient id="SVGID_6_" gradientUnits="userSpaceOnUse" x1="1611.1943" y1="1135.3702" x2="1675.8456" y2="1200.0214">
				<stop  offset="0" style="stop-color:#FFDFB4"/>
				<stop  offset="0.2129" style="stop-color:#FEDAB0"/>
				<stop  offset="0.4519" style="stop-color:#FDCDA5"/>
				<stop  offset="0.7034" style="stop-color:#FAB693"/>
				<stop  offset="0.9622" style="stop-color:#F79779"/>
				<stop  offset="1" style="stop-color:#F69275"/>
			</linearGradient>
			<path fill="url(#SVGID_6_)" d="M1701.9,1107.1c-18-64.1-67.8,8.2-67.8,8.2l-36.7,135.5
				C1643.1,1235.3,1722.8,1181.8,1701.9,1107.1z"/>
			<linearGradient id="SVGID_7_" gradientUnits="userSpaceOnUse" x1="1091.8191" y1="1103.0348" x2="1221.141" y2="1232.3567">
				<stop  offset="0" style="stop-color:#FFDFB4"/>
				<stop  offset="0.2129" style="stop-color:#FEDAB0"/>
				<stop  offset="0.4519" style="stop-color:#FDCDA5"/>
				<stop  offset="0.7034" style="stop-color:#FAB693"/>
				<stop  offset="0.9622" style="stop-color:#F79779"/>
				<stop  offset="1" style="stop-color:#F69275"/>
			</linearGradient>
			<path fill="url(#SVGID_7_)" d="M1098.1,1107.1c-20.9,74.6,58.8,128.2,104.5,143.7l-36.7-135.5
				C1165.9,1115.3,1116.1,1043,1098.1,1107.1z"/>
		</g>
		<linearGradient id="SVGID_8_" gradientUnits="userSpaceOnUse" x1="1228.3845" y1="985.6575" x2="1582.4617" y2="1339.7346">
			<stop  offset="0" style="stop-color:#FFDFB4"/>
			<stop  offset="0.2129" style="stop-color:#FEDAB0"/>
			<stop  offset="0.4519" style="stop-color:#FDCDA5"/>
			<stop  offset="0.7034" style="stop-color:#FAB693"/>
			<stop  offset="0.9622" style="stop-color:#F79779"/>
			<stop  offset="1" style="stop-color:#F69275"/>
		</linearGradient>
		<path fill="url(#SVGID_8_)" d="M1655.7,1122.9c6.1-64.1-30.4-124.5-89.8-149.4c-48.1-20.1-96.5-48.8-102.5-105
			c0,0-75.1,92.5-244.5,144.2c-48,14.7-79.2,60.8-74.9,110.8c24,194.5,163.9,339.4,255.8,339.4c91.9,0,231.9-145,255.8-339.6
			C1655.6,1123.2,1655.7,1123.1,1655.7,1122.9z"/>
		<g>
			<linearGradient id="SVGID_9_" gradientUnits="userSpaceOnUse" x1="1083.8258" y1="2040.1251" x2="1716.1742" y2="2672.4736">
				<stop  offset="0" style="stop-color:#7699C4"/>
				<stop  offset="0.2515" style="stop-color:#6F93BD"/>
				<stop  offset="0.6199" style="stop-color:#5B81AB"/>
				<stop  offset="1" style="stop-color:#406991"/>
			</linearGradient>
			<rect x="822.3" y="2301.7" fill="url(#SVGID_9_)" width="1155.5" height="109.2"/>
			<linearGradient id="SVGID_10_" gradientUnits="userSpaceOnUse" x1="939.2535" y1="1566.8643" x2="1860.7466" y2="2488.3574">
				<stop  offset="0" style="stop-color:#FFFFFF"/>
				<stop  offset="1.079329e-02" style="stop-color:#FCFDFE"/>
				<stop  offset="0.4778" style="stop-color:#84AADA"/>
				<stop  offset="0.6029" style="stop-color:#7DA4D4"/>
				<stop  offset="0.7862" style="stop-color:#6993C3"/>
				<stop  offset="1" style="stop-color:#4A79A7"/>
			</linearGradient>
			<path fill="url(#SVGID_10_)" d="M1975.1,1690.7H824.9c-12.7,0-22.9,10.3-22.9,22.9v637.5h1196v-637.5
				C1998,1700.9,1987.7,1690.7,1975.1,1690.7z"/>
			<linearGradient id="SVGID_11_" gradientUnits="userSpaceOnUse" x1="1089.7927" y1="2078.2878" x2="1710.2073" y2="2698.7024">
				<stop  offset="0" style="stop-color:#FFFFFF"/>
				<stop  offset="1.079329e-02" style="stop-color:#FCFDFE"/>
				<stop  offset="0.4778" style="stop-color:#84AADA"/>
				<stop  offset="0.6029" style="stop-color:#7DA4D4"/>
				<stop  offset="0.7862" style="stop-color:#6993C3"/>
				<stop  offset="1" style="stop-color:#4A79A7"/>
			</linearGradient>
			<rect x="802" y="2366.1" fill="url(#SVGID_11_)" width="1196" height="44.8"/>
			<path fill="#FFFFFF" d="M1400,1911.6c-60.4,0-109.3,48.9-109.3,109.3s48.9,109.3,109.3,109.3c60.4,0,109.3-48.9,109.3-109.3
				S1460.4,1911.6,1400,1911.6z M1400,2093.6c-40.1,0-72.7-32.5-72.7-72.7s32.5-72.7,72.7-72.7s72.7,32.5,72.7,72.7
				S1440.1,2093.6,1400,2093.6z"/>
		</g>
	</g>
</g>
</svg>
