<?xml version="1.0" encoding="UTF-8" standalone="no"?>
<svg
   xmlns:dc="http://purl.org/dc/elements/1.1/"
   xmlns:cc="http://creativecommons.org/ns#"
   xmlns:rdf="http://www.w3.org/1999/02/22-rdf-syntax-ns#"
   xmlns:svg="http://www.w3.org/2000/svg"
   xmlns="http://www.w3.org/2000/svg"
   viewBox="0 0 1133.8667 1133.8533"
   height="1133.8533"
   width="1133.8667"
   xml:space="preserve"
   id="svg2"
   version="1.1"><metadata
     id="metadata8"><rdf:RDF><cc:Work
         rdf:about=""><dc:format>image/svg+xml</dc:format><dc:type
           rdf:resource="http://purl.org/dc/dcmitype/StillImage" /></cc:Work></rdf:RDF></metadata><defs
     id="defs6" /><g
     transform="matrix(1.3333333,0,0,-1.3333333,0,1133.8533)"
     id="g10"><g
       transform="scale(0.1)"
       id="g12"><path
         id="path14"
         style="fill:#f3d13c;fill-opacity:1;fill-rule:nonzero;stroke:none"
         d="M 0,8503.94 H 8503.95 V -0.0117188 H 0 V 8503.94" /><path
         id="path16"
         style="fill:#5685a8;fill-opacity:1;fill-rule:nonzero;stroke:none"
         d="M 7016.09,3590.2 H 1487.85 c -117.12,0 -212.25,-94.54 -212.25,-211.67 0,-117.13 95.13,-212.27 212.25,-212.27 h 5528.24 c 117.15,0 212.26,95.14 212.26,212.27 0,117.13 -95.11,211.67 -212.26,211.67 v 0" /><path
         id="path18"
         style="fill:#5685a8;fill-opacity:1;fill-rule:nonzero;stroke:none"
         d="m 2597.31,3965.38 v 0 c 0,-109.4 -90.97,-177.18 -173.61,-177.18 -82.06,0 -131.99,51.13 -131.99,51.72 0,0.6 82.05,83.24 82.05,82.65 0,-1.19 14.86,-20.21 49.94,-20.21 35.08,0 59.45,31.51 59.45,62.42 0,30.33 -21.4,66.01 -60.05,66.01 -38.65,0 -49.34,-19.62 -49.34,-19.62 l -82.05,82.63 87.4,126.06 h -112.98 v 115.35 h 334.74 l -136.74,-195.03 c 0,0 133.18,-33.29 133.18,-174.8 z m 630.24,297.29 c 0,117.13 -95.13,212.27 -212.86,212.27 H 1751.24 c -117.72,0 -212.85,-95.14 -212.85,-212.27 v -553.55 h 1689.16 v 553.55" /><path
         id="path20"
         style="fill:#5685a8;fill-opacity:1;fill-rule:nonzero;stroke:none"
         d="m 6189.64,3906.52 v 0 h -378.12 l 219.98,312.74 c 13.67,16.65 23.79,34.49 23.79,55.89 0,27.95 -26.17,62.44 -64.83,62.44 -34.47,0 -63,-27.95 -63,-64.82 h -117.74 c 0,93.35 73.13,180.17 185.51,180.17 106.42,0 177.19,-93.36 177.19,-181.94 0,-57.09 -32.72,-101.08 -32.72,-101.08 l -104.63,-148.05 h 154.57 z m 687.33,623.71 c 0,117.13 -95.14,212.26 -212.85,212.26 H 5400.68 c -117.72,0 -212.87,-95.13 -212.87,-212.26 v -821.11 h 1689.16 v 821.11" /><path
         id="path22"
         style="fill:#5685a8;fill-opacity:1;fill-rule:nonzero;stroke:none"
         d="m 4096.8,4772.82 v 0 h 143.28 V 4225.81 H 4096.8 Z m 949.52,-1063.7 c 0,0.59 0,1.19 0,1.19 v 1414.5 c 0,117.73 -95.15,212.86 -212.87,212.86 H 3570.01 c -117.72,0 -212.85,-95.13 -212.85,-212.86 v -1414.5 c 0,0 0,-0.6 0,-1.19 h 1689.16" /></g></g></svg>