<?xml version="1.0" encoding="utf-8"?>
<svg id="master-artboard" viewBox="0 0 1400 980" version="1.1" xmlns="http://www.w3.org/2000/svg" x="0px" y="0px" enable-background="new 0 0 1400 980" width="1400px" height="980px">
<path d="M 0 0 H 1400 V 980 H 0 V 0 Z" fill="#00B9BA" transform="matrix(1, 0, 0, 1, 2.842170943040401e-14, 7.105427357601002e-15)"/><path d="M 0 856.299988 H 1400 V 979.999985 H 0 V 856.299988 Z" fill="#088996" transform="matrix(1, 0, 0, 1, 2.842170943040401e-14, 7.105427357601002e-15)"/><path d="M 1152.799988 490 A 452.799988 452.799988 0 0 1 700 942.799988 A 452.799988 452.799988 0 0 1 247.200012 490 A 452.799988 452.799988 0 0 1 700 37.200012 A 452.799988 452.799988 0 0 1 1152.799988 490 Z" opacity="0.68" fill="#EEF2C2" transform="matrix(1, 0, 0, 1, 2.842170943040401e-14, 7.105427357601002e-15)"/><path d="M 1132.700012 490 A 432.700012 432.700012 0 0 1 700 922.700012 A 432.700012 432.700012 0 0 1 267.299988 490 A 432.700012 432.700012 0 0 1 700 57.299988 A 432.700012 432.700012 0 0 1 1132.700012 490 Z" opacity="0.68" fill="#FFFFFF" transform="matrix(1, 0, 0, 1, 2.842170943040401e-14, 7.105427357601002e-15)"/><path d="M 119.900003 277.799988 A 16.6 16.6 0 0 1 103.300003 294.399988 A 16.6 16.6 0 0 1 86.700003 277.799988 A 16.6 16.6 0 0 1 103.300003 261.199987 A 16.6 16.6 0 0 1 119.900003 277.799988 Z" fill="#474E51" transform="matrix(1, 0, 0, 1, 5.684341886080802e-14, 1.4210854715202004e-14)"/><path d="M 375.499994 354.899994 A 16.6 16.6 0 0 1 358.899994 371.499994 A 16.6 16.6 0 0 1 342.299994 354.899994 A 16.6 16.6 0 0 1 358.899994 338.299994 A 16.6 16.6 0 0 1 375.499994 354.899994 Z" fill="#474E51" transform="matrix(1, 0, 0, 1, 5.684341886080802e-14, 1.4210854715202004e-14)"/><path fill="#474E51" d="M160.8,299.3c0-4.8,0-4.9-4.9-4.9c-4.8,0-8.8,3.9-8.8,8.8s3.9,8.8,8.8,8.8&#10;&#9;&#9;&#9;C160.8,312,160.8,304.1,160.8,299.3z" transform="matrix(1, 0, 0, 1, 5.684341886080802e-14, 1.4210854715202004e-14)"/><path d="M 289.6 145.100006 A 16.6 16.6 0 0 1 273 161.700006 A 16.6 16.6 0 0 1 256.4 145.100006 A 16.6 16.6 0 0 1 273 128.500006 A 16.6 16.6 0 0 1 289.6 145.100006 Z" fill="#474E51" transform="matrix(1, 0, 0, 1, 5.684341886080802e-14, 1.4210854715202004e-14)"/><path d="M 71.1 207.600006 A 16.6 16.6 0 0 1 54.5 224.200006 A 16.6 16.6 0 0 1 37.9 207.600006 A 16.6 16.6 0 0 1 54.5 191.000006 A 16.6 16.6 0 0 1 71.1 207.600006 Z" fill="#474E51" transform="matrix(1, 0, 0, 1, 5.684341886080802e-14, 1.4210854715202004e-14)"/><path d="M 137.400002 78.800003 A 20.5 20.5 0 0 1 116.900002 99.300003 A 20.5 20.5 0 0 1 96.400002 78.800003 A 20.5 20.5 0 0 1 116.900002 58.300003 A 20.5 20.5 0 0 1 137.400002 78.800003 Z" fill="#474E51" transform="matrix(1, 0, 0, 1, 5.684341886080802e-14, 1.4210854715202004e-14)"/><path d="M 59.299998 115.900002 A 10.7 10.7 0 0 1 48.599998 126.600001 A 10.7 10.7 0 0 1 37.899999 115.900002 A 10.7 10.7 0 0 1 48.599998 105.200002 A 10.7 10.7 0 0 1 59.299998 115.900002 Z" fill="#474E51" transform="matrix(1, 0, 0, 1, 5.684341886080802e-14, 1.4210854715202004e-14)"/><path fill="#474E51" d="M122.5,150.2c-8.4-5.8-17.5,1-16.1,9.2c0.7,4,3.9,7.3,8,8c8.3,1.4,15-7.7,9.2-16.1&#10;&#9;&#9;&#9;C123.3,150.9,122.9,150.5,122.5,150.2z" transform="matrix(1, 0, 0, 1, 5.684341886080802e-14, 1.4210854715202004e-14)"/><path fill="#474E51" d="M423,472.2c-8.4-5.8-17.5,1-16.1,9.2c0.7,4,3.9,7.3,8,8c8.3,1.4,15-7.7,9.2-16.1&#10;&#9;&#9;&#9;C423.7,472.8,423.4,472.4,423,472.2z" transform="matrix(1, 0, 0, 1, 5.684341886080802e-14, 1.4210854715202004e-14)"/><path d="M 301.399994 85.599998 A 21.5 21.5 0 0 1 279.899994 107.099998 A 21.5 21.5 0 0 1 258.399994 85.599998 A 21.5 21.5 0 0 1 279.899994 64.099998 A 21.5 21.5 0 0 1 301.399994 85.599998 Z" fill="#474E51" transform="matrix(1, 0, 0, 1, 5.684341886080802e-14, 1.4210854715202004e-14)"/><path d="M 351.999988 61.200001 A 10.7 10.7 0 0 1 341.299988 71.900001 A 10.7 10.7 0 0 1 330.599988 61.200001 A 10.7 10.7 0 0 1 341.299988 50.500001 A 10.7 10.7 0 0 1 351.999988 61.200001 Z" fill="#474E51" transform="matrix(1, 0, 0, 1, 5.684341886080802e-14, 1.4210854715202004e-14)"/><path fill="#474E51" d="M208.6,60.2c7,0,12.7-5.7,12.7-12.7s-5.7-12.7-12.7-12.7S192,36.7,192,43.7S201.6,60.2,208.6,60.2z" transform="matrix(1, 0, 0, 1, 5.684341886080802e-14, 1.4210854715202004e-14)"/><path d="M 275.900012 245.600006 A 11.7 11.7 0 0 1 264.200012 257.300006 A 11.7 11.7 0 0 1 252.500012 245.600006 A 11.7 11.7 0 0 1 264.200012 233.900006 A 11.7 11.7 0 0 1 275.900012 245.600006 Z" fill="#474E51" transform="matrix(1, 0, 0, 1, 5.684341886080802e-14, 1.4210854715202004e-14)"/><path d="M 217.499994 485.600006 A 17.6 17.6 0 0 1 199.899994 503.200006 A 17.6 17.6 0 0 1 182.299994 485.600006 A 17.6 17.6 0 0 1 199.899994 468.000006 A 17.6 17.6 0 0 1 217.499994 485.600006 Z" fill="#474E51" transform="matrix(1, 0, 0, 1, 5.684341886080802e-14, 1.4210854715202004e-14)"/><path d="M 110.100001 566.599976 A 10.7 10.7 0 0 1 99.400002 577.299975 A 10.7 10.7 0 0 1 88.700002 566.599976 A 10.7 10.7 0 0 1 99.400002 555.899976 A 10.7 10.7 0 0 1 110.100001 566.599976 Z" fill="#474E51" transform="matrix(1, 0, 0, 1, 5.684341886080802e-14, 1.4210854715202004e-14)"/><path d="M 160.8 631 A 6.8 6.8 0 0 1 154 637.8 A 6.8 6.8 0 0 1 147.2 631 A 6.8 6.8 0 0 1 154 624.2 A 6.8 6.8 0 0 1 160.8 631 Z" fill="#474E51" transform="matrix(1, 0, 0, 1, 5.684341886080802e-14, 1.4210854715202004e-14)"/><path d="M 1093.600049 62.200001 A 9.8 9.8 0 0 1 1083.800049 72.000001 A 9.8 9.8 0 0 1 1074.000049 62.200001 A 9.8 9.8 0 0 1 1083.800049 52.400001 A 9.8 9.8 0 0 1 1093.600049 62.200001 Z" fill="#474E51" transform="matrix(1, 0, 0, 1, 5.684341886080802e-14, 1.4210854715202004e-14)"/><path fill="#474E51" d="M1156.9,60.2c5.9,0,10.7-4.8,10.7-10.7c0-5.9-4.8-10.7-10.7-10.7c-5.9,0-14.6,0.9-14.6,6.8&#10;&#9;&#9;&#9;S1151,60.2,1156.9,60.2z" transform="matrix(1, 0, 0, 1, 5.684341886080802e-14, 1.4210854715202004e-14)"/><path d="M 1155.900049 132.399994 A 15.6 15.6 0 0 1 1140.300049 147.999994 A 15.6 15.6 0 0 1 1124.700048 132.399994 A 15.6 15.6 0 0 1 1140.300049 116.799994 A 15.6 15.6 0 0 1 1155.900049 132.399994 Z" fill="#474E51" transform="matrix(1, 0, 0, 1, 5.684341886080802e-14, 1.4210854715202004e-14)"/><path d="M 1282.799999 111 A 29.299999 29.299999 0 0 1 1253.5 140.299999 A 29.299999 29.299999 0 0 1 1224.200001 111 A 29.299999 29.299999 0 0 1 1253.5 81.700001 A 29.299999 29.299999 0 0 1 1282.799999 111 Z" fill="#474E51" transform="matrix(1, 0, 0, 1, 5.684341886080802e-14, 1.4210854715202004e-14)"/><path d="M 1249.600024 199.800003 A 10.7 10.7 0 0 1 1238.900024 210.500003 A 10.7 10.7 0 0 1 1228.200025 199.800003 A 10.7 10.7 0 0 1 1238.900024 189.100003 A 10.7 10.7 0 0 1 1249.600024 199.800003 Z" fill="#474E51" transform="matrix(1, 0, 0, 1, 5.684341886080802e-14, 1.4210854715202004e-14)"/><path d="M 1140.300024 539.299988 A 22.4 22.4 0 0 1 1117.900024 561.699987 A 22.4 22.4 0 0 1 1095.500025 539.299988 A 22.4 22.4 0 0 1 1117.900024 516.899988 A 22.4 22.4 0 0 1 1140.300024 539.299988 Z" fill="#474E51" transform="matrix(1, 0, 0, 1, 5.684341886080802e-14, 1.4210854715202004e-14)"/><path fill="#474E51" d="M1290.5,340.7c-0.6-3.6-3.5-6.6-7.2-7.2c-6-1-11.1,4.1-10.1,10.1c0.6,3.6,3.5,6.6,7.2,7.2&#10;&#9;&#9;&#9;C1286.3,351.8,1291.4,346.7,1290.5,340.7z" transform="matrix(1, 0, 0, 1, 5.684341886080802e-14, 1.4210854715202004e-14)"/><path d="M 1314.000049 244.600006 A 12.7 12.7 0 0 1 1301.300049 257.300006 A 12.7 12.7 0 0 1 1288.600049 244.600006 A 12.7 12.7 0 0 1 1301.300049 231.900006 A 12.7 12.7 0 0 1 1314.000049 244.600006 Z" fill="#474E51" transform="matrix(1, 0, 0, 1, 5.684341886080802e-14, 1.4210854715202004e-14)"/><path d="M 1362.799975 81.699997 A 13.7 13.7 0 0 1 1349.099976 95.399997 A 13.7 13.7 0 0 1 1335.399976 81.699997 A 13.7 13.7 0 0 1 1349.099976 67.999997 A 13.7 13.7 0 0 1 1362.799975 81.699997 Z" fill="#474E51" transform="matrix(1, 0, 0, 1, 5.684341886080802e-14, 1.4210854715202004e-14)"/><path d="M 1358.899951 811.5 A 13.7 13.7 0 0 1 1345.199951 825.2 A 13.7 13.7 0 0 1 1331.499951 811.5 A 13.7 13.7 0 0 1 1345.199951 797.8 A 13.7 13.7 0 0 1 1358.899951 811.5 Z" fill="#474E51" transform="matrix(1, 0, 0, 1, 5.684341886080802e-14, 1.4210854715202004e-14)"/><path d="M 1378.399976 157.800003 A 9.8 9.8 0 0 1 1368.599976 167.600003 A 9.8 9.8 0 0 1 1358.799975 157.800003 A 9.8 9.8 0 0 1 1368.599976 148.000003 A 9.8 9.8 0 0 1 1378.399976 157.800003 Z" fill="#474E51" transform="matrix(1, 0, 0, 1, 5.684341886080802e-14, 1.4210854715202004e-14)"/><path d="M 1360.799952 370.5 A 15.6 15.6 0 0 1 1345.199951 386.1 A 15.6 15.6 0 0 1 1329.599951 370.5 A 15.6 15.6 0 0 1 1345.199951 354.9 A 15.6 15.6 0 0 1 1360.799952 370.5 Z" fill="#474E51" transform="matrix(1, 0, 0, 1, 5.684341886080802e-14, 1.4210854715202004e-14)"/><path d="M 976.399988 530.5 A 15.6 15.6 0 0 1 960.799988 546.1 A 15.6 15.6 0 0 1 945.199987 530.5 A 15.6 15.6 0 0 1 960.799988 514.9 A 15.6 15.6 0 0 1 976.399988 530.5 Z" fill="#474E51" transform="matrix(1, 0, 0, 1, 5.684341886080802e-14, 1.4210854715202004e-14)"/><path d="M 1339.299975 451.5 A 10.7 10.7 0 0 1 1328.599976 462.2 A 10.7 10.7 0 0 1 1317.899976 451.5 A 10.7 10.7 0 0 1 1328.599976 440.8 A 10.7 10.7 0 0 1 1339.299975 451.5 Z" fill="#474E51" transform="matrix(1, 0, 0, 1, 5.684341886080802e-14, 1.4210854715202004e-14)"/><path d="M 462.300006 663.200012 A 10.7 10.7 0 0 1 451.600006 673.900012 A 10.7 10.7 0 0 1 440.900006 663.200012 A 10.7 10.7 0 0 1 451.600006 652.500012 A 10.7 10.7 0 0 1 462.300006 663.200012 Z" fill="#474E51" transform="matrix(1, 0, 0, 1, 5.684341886080802e-14, 1.4210854715202004e-14)"/><path d="M 1288.600024 507.100006 A 11.7 11.7 0 0 1 1276.900024 518.800006 A 11.7 11.7 0 0 1 1265.200025 507.100006 A 11.7 11.7 0 0 1 1276.900024 495.400006 A 11.7 11.7 0 0 1 1288.600024 507.100006 Z" fill="#474E51" transform="matrix(1, 0, 0, 1, 5.684341886080802e-14, 1.4210854715202004e-14)"/><path d="M 1286.7 607.599976 A 10.7 10.7 0 0 1 1276 618.299975 A 10.7 10.7 0 0 1 1265.3 607.599976 A 10.7 10.7 0 0 1 1276 596.899976 A 10.7 10.7 0 0 1 1286.7 607.599976 Z" fill="#474E51" transform="matrix(1, 0, 0, 1, 5.684341886080802e-14, 1.4210854715202004e-14)"/><path d="M 1331.599951 579.299988 A 5.9 5.9 0 0 1 1325.699951 585.199988 A 5.9 5.9 0 0 1 1319.799951 579.299988 A 5.9 5.9 0 0 1 1325.699951 573.399988 A 5.9 5.9 0 0 1 1331.599951 579.299988 Z" fill="#474E51" transform="matrix(1, 0, 0, 1, 5.684341886080802e-14, 1.4210854715202004e-14)"/><path d="M 1247.7 566.599976 A 12.7 12.7 0 0 1 1235 579.299975 A 12.7 12.7 0 0 1 1222.3 566.599976 A 12.7 12.7 0 0 1 1235 553.899976 A 12.7 12.7 0 0 1 1247.7 566.599976 Z" fill="#474E51" transform="matrix(1, 0, 0, 1, 5.684341886080802e-14, 1.4210854715202004e-14)"/><path d="M 1237.899976 680.700012 A 9.8 9.8 0 0 1 1228.099976 690.500012 A 9.8 9.8 0 0 1 1218.299975 680.700012 A 9.8 9.8 0 0 1 1228.099976 670.900012 A 9.8 9.8 0 0 1 1237.899976 680.700012 Z" fill="#474E51" transform="matrix(1, 0, 0, 1, 5.684341886080802e-14, 1.4210854715202004e-14)"/><path d="M 45.70000076293945 55.599998474121094 L 56.29999923706055 61.099998474121094 L 54.29999923706055 49.400001525878906 L 62.79999923706055 41 L 51 39.29999923706055 L 45.70000076293945 28.600000381469727 L 40.400001525878906 39.29999923706055 L 28.600000381469727 41 L 37.20000076293945 49.400001525878906 L 35.099998474121094 61.099998474121094 Z" fill="#474E51" transform="matrix(1, 0, 0, 1, 5.684341886080802e-14, 1.4210854715202004e-14)"/><path d="M 163.60000610351562 145.5 L 174.5 133.89999389648438 L 190.10000610351562 136.3000030517578 L 182.5 122.5 L 189.60000610351562 108.30000305175781 L 174.10000610351562 111.30000305175781 L 162.8000030517578 100.19999694824219 L 160.8000030517578 115.9000015258789 L 146.8000030517578 123.0999984741211 L 161.10000610351562 129.89999389648438 Z" fill="#474E51" transform="matrix(1, 0, 0, 1, 5.684341886080802e-14, 1.4210854715202004e-14)"/><path d="M 533 147.39999389648438 L 517.5 150.3000030517578 L 506.20001220703125 139.1999969482422 L 504.20001220703125 154.89999389648438 L 490.20001220703125 162.10000610351562 L 504.5 168.89999389648438 L 507 184.5 L 517.9000244140625 173 L 533.5 175.39999389648438 L 525.9000244140625 161.5 Z" fill="#474E51" transform="matrix(1, 0, 0, 1, 5.684341886080802e-14, 1.4210854715202004e-14)"/><path d="M 224.3000030517578 183.39999389648438 L 221.3000030517578 200.6999969482422 L 236.89999389648438 192.5 L 252.5 200.6999969482422 L 249.5 183.39999389648438 L 262.20001220703125 171.10000610351562 L 244.6999969482422 168.5 L 236.89999389648438 152.6999969482422 L 229.10000610351562 168.5 L 211.6999969482422 171.10000610351562 Z" fill="#474E51" transform="matrix(1, 0, 0, 1, 5.684341886080802e-14, 1.4210854715202004e-14)"/><path d="M 357.29998779296875 105.30000305175781 L 358.1000061035156 115.4000015258789 L 365.6000061035156 108.5999984741211 L 375.5 111 L 371.3999938964844 101.69999694824219 L 376.70001220703125 93.0999984741211 L 366.6000061035156 94.0999984741211 L 360 86.4000015258789 L 357.8999938964844 96.30000305175781 L 348.6000061035156 100.19999694824219 Z" fill="#474E51" transform="matrix(1, 0, 0, 1, 5.684341886080802e-14, 1.4210854715202004e-14)"/><path d="M 422.8999938964844 55 L 412.8999938964844 59.70000076293945 L 403.29998779296875 54.099998474121094 L 404.70001220703125 65.0999984741211 L 396.5 72.5 L 407.29998779296875 74.5999984741211 L 411.79998779296875 84.69999694824219 L 417.1000061035156 75 L 428.1000061035156 73.9000015258789 L 420.6000061035156 65.80000305175781 Z" fill="#474E51" transform="matrix(1, 0, 0, 1, 5.684341886080802e-14, 1.4210854715202004e-14)"/><path d="M 326.5 183.89999389648438 L 339.5 175.3000030517578 L 354 181.1999969482422 L 349.8999938964844 166.1999969482422 L 359.8999938964844 154.1999969482422 L 344.29998779296875 153.5 L 336.1000061035156 140.3000030517578 L 330.6000061035156 154.89999389648438 L 315.3999938964844 158.60000610351562 L 327.6000061035156 168.39999389648438 Z" fill="#474E51" transform="matrix(1, 0, 0, 1, 5.684341886080802e-14, 1.4210854715202004e-14)"/><path d="M 351.5 254.8000030517578 L 367.70001220703125 261.20001220703125 L 362.8999938964844 244.39999389648438 L 374.1000061035156 231 L 356.70001220703125 230.3000030517578 L 347.3999938964844 215.60000610351562 L 341.29998779296875 232 L 324.3999938964844 236.1999969482422 L 338.1000061035156 247 L 337 264.3999938964844 Z" fill="#474E51" transform="matrix(1, 0, 0, 1, 5.684341886080802e-14, 1.4210854715202004e-14)"/><path d="M 1015.5 626.0999755859375 L 1006.2000122070312 611.4000244140625 L 1000.0999755859375 627.7000122070312 L 983.2000122070312 632 L 996.9000244140625 642.7999877929688 L 995.7999877929688 660.2000122070312 L 1010.2999877929688 650.5 L 1026.5 657 L 1021.7000122070312 640.2000122070312 L 1032.9000244140625 626.7999877929688 Z" fill="#474E51" transform="matrix(1, 0, 0, 1, 5.684341886080802e-14, 1.4210854715202004e-14)"/><path d="M 283.5 299.20001220703125 L 298.29998779296875 284 L 277.20001220703125 281.5 L 267.29998779296875 262.70001220703125 L 258.3999938964844 282 L 237.5 285.6000061035156 L 253.10000610351562 300.1000061035156 L 250.10000610351562 321.1000061035156 L 268.6000061035156 310.70001220703125 L 287.70001220703125 320.1000061035156 Z" fill="#474E51" transform="matrix(1, 0, 0, 1, 5.684341886080802e-14, 1.4210854715202004e-14)"/><path d="M 98.5999984741211 426.79998779296875 L 111.0999984741211 413 L 129.60000610351562 415.3999938964844 L 120.30000305175781 399.20001220703125 L 128.3000030517578 382.29998779296875 L 110 386.20001220703125 L 96.4000015258789 373.3999938964844 L 94.5 392 L 78.0999984741211 400.8999938964844 L 95.19999694824219 408.5 Z" fill="#474E51" transform="matrix(1, 0, 0, 1, 5.684341886080802e-14, 1.4210854715202004e-14)"/><path d="M 395.6000061035156 575.5 L 377.29998779296875 579.4000244140625 L 363.70001220703125 566.5 L 361.79998779296875 585.0999755859375 L 345.3999938964844 594.0999755859375 L 362.5 601.5999755859375 L 365.8999938964844 620 L 378.3999938964844 606.0999755859375 L 396.8999938964844 608.5 L 387.6000061035156 592.4000244140625 Z" fill="#474E51" transform="matrix(1, 0, 0, 1, 5.684341886080802e-14, 1.4210854715202004e-14)"/><path d="M 53.400001525878906 336 L 63.29999923706055 341.20001220703125 L 61.5 330.20001220703125 L 69.5 322.5 L 58.5 320.79998779296875 L 53.599998474121094 310.79998779296875 L 48.599998474121094 320.70001220703125 L 37.599998474121094 322.20001220703125 L 45.5 330.1000061035156 L 43.5 341.1000061035156 Z" fill="#474E51" transform="matrix(1, 0, 0, 1, 5.684341886080802e-14, 1.4210854715202004e-14)"/><path d="M 187.39999389648438 373.8999938964844 L 185.3000030517578 370.8999938964844 L 184.1999969482422 374.3999938964844 L 180.6999969482422 375.5 L 183.6999969482422 377.6000061035156 L 183.6999969482422 381.29998779296875 L 186.60000610351562 379.1000061035156 L 190.10000610351562 380.20001220703125 L 188.89999389648438 376.79998779296875 L 191.10000610351562 373.79998779296875 Z" fill="#474E51" transform="matrix(1, 0, 0, 1, 5.684341886080802e-14, 1.4210854715202004e-14)"/><path d="M 141.3000030517578 444.79998779296875 L 147.5 433.3999938964844 L 134.6999969482422 435.3999938964844 L 125.80000305175781 426 L 123.80000305175781 438.79998779296875 L 112.0999984741211 444.29998779296875 L 123.5999984741211 450.20001220703125 L 125.30000305175781 463.1000061035156 L 134.39999389648438 454 L 147.1999969482422 456.29998779296875 Z" fill="#474E51" transform="matrix(1, 0, 0, 1, 5.684341886080802e-14, 1.4210854715202004e-14)"/><path d="M 60.5 502.8999938964844 L 55.29999923706055 495.3999938964844 L 52.5 504.1000061035156 L 43.79999923706055 506.8999938964844 L 51.29999923706055 512.2000122070312 L 51.20000076293945 521.2999877929688 L 58.5 515.7999877929688 L 67.19999694824219 518.7999877929688 L 64.19999694824219 510.1000061035156 L 69.69999694824219 502.79998779296875 Z" fill="#474E51" transform="matrix(1, 0, 0, 1, 5.684341886080802e-14, 1.4210854715202004e-14)"/><path d="M 459.6000061035156 216.89999389648438 L 454.29998779296875 209.39999389648438 L 451.6000061035156 218.1999969482422 L 442.79998779296875 220.89999389648438 L 450.29998779296875 226.1999969482422 L 450.20001220703125 235.39999389648438 L 457.5 229.89999389648438 L 466.20001220703125 232.8000030517578 L 463.29998779296875 224.10000610351562 L 468.70001220703125 216.8000030517578 Z" fill="#474E51" transform="matrix(1, 0, 0, 1, 5.684341886080802e-14, 1.4210854715202004e-14)"/><path d="M 656 60.70000076293945 L 650.7000122070312 53.20000076293945 L 648 62 L 639.2000122070312 64.69999694824219 L 646.7000122070312 70 L 646.5999755859375 79.19999694824219 L 653.9000244140625 73.69999694824219 L 662.5999755859375 76.5999984741211 L 659.5999755859375 67.9000015258789 L 665.0999755859375 60.599998474121094 Z" fill="#474E51" transform="matrix(1, 0, 0, 1, 5.684341886080802e-14, 1.4210854715202004e-14)"/><path d="M 487.8999938964844 116.69999694824219 L 493.3999938964844 109.4000015258789 L 484.29998779296875 109.5 L 479 102 L 476.20001220703125 110.80000305175781 L 467.5 113.5 L 475 118.80000305175781 L 474.8999938964844 127.9000015258789 L 482.20001220703125 122.5 L 490.8999938964844 125.4000015258789 Z" fill="#474E51" transform="matrix(1, 0, 0, 1, 5.684341886080802e-14, 1.4210854715202004e-14)"/><path d="M 412 385.8999938964844 L 420.6000061035156 388.79998779296875 L 417.70001220703125 380.1000061035156 L 423.20001220703125 372.79998779296875 L 414 372.8999938964844 L 408.70001220703125 365.3999938964844 L 406 374.20001220703125 L 397.29998779296875 376.8999938964844 L 404.70001220703125 382.20001220703125 L 404.6000061035156 391.3999938964844 Z" fill="#474E51" transform="matrix(1, 0, 0, 1, 5.684341886080802e-14, 1.4210854715202004e-14)"/><path d="M 949 252.8000030517578 L 956.2999877929688 247.3000030517578 L 965 250.3000030517578 L 962.0999755859375 241.60000610351562 L 967.5999755859375 234.3000030517578 L 958.4000244140625 234.39999389648438 L 953.0999755859375 226.89999389648438 L 950.4000244140625 235.60000610351562 L 941.5999755859375 238.39999389648438 L 949.0999755859375 243.6999969482422 Z" fill="#474E51" transform="matrix(1, 0, 0, 1, 5.684341886080802e-14, 1.4210854715202004e-14)"/><path d="M 1035.699951171875 266 L 1030.4000244140625 258.5 L 1027.699951171875 267.20001220703125 L 1018.9000244140625 270 L 1026.4000244140625 275.29998779296875 L 1026.300048828125 284.3999938964844 L 1033.5999755859375 278.8999938964844 L 1042.300048828125 281.8999938964844 L 1039.300048828125 273.20001220703125 L 1044.800048828125 265.8999938964844 Z" fill="#474E51" transform="matrix(1, 0, 0, 1, 5.684341886080802e-14, 1.4210854715202004e-14)"/><path d="M 577.9000244140625 35.400001525878906 L 572.5999755859375 27.899999618530273 L 569.9000244140625 36.599998474121094 L 561.2000122070312 39.29999923706055 L 568.5999755859375 44.599998474121094 L 568.5 53.79999923706055 L 575.9000244140625 48.29999923706055 L 584.5 51.29999923706055 L 581.5999755859375 42.599998474121094 L 587.0999755859375 35.20000076293945 Z" fill="#474E51" transform="matrix(1, 0, 0, 1, 5.684341886080802e-14, 1.4210854715202004e-14)"/><path d="M 177.8000030517578 539.0999755859375 L 170.6999969482422 527.4000244140625 L 165.6999969482422 540.2000122070312 L 152.3000030517578 543.4000244140625 L 163 552.0999755859375 L 161.89999389648438 565.9000244140625 L 173.5 558.4000244140625 L 186.1999969482422 563.7000122070312 L 182.60000610351562 550.2999877929688 L 191.60000610351562 539.9000244140625 Z" fill="#474E51" transform="matrix(1, 0, 0, 1, 5.684341886080802e-14, 1.4210854715202004e-14)"/><path d="M 312.1000061035156 443.20001220703125 L 304.8999938964844 431.3999938964844 L 300 444.29998779296875 L 286.6000061035156 447.5 L 297.29998779296875 456.20001220703125 L 296.20001220703125 469.8999938964844 L 307.79998779296875 462.3999938964844 L 320.5 467.70001220703125 L 316.8999938964844 454.3999938964844 L 325.8999938964844 443.8999938964844 Z" fill="#474E51" transform="matrix(1, 0, 0, 1, 5.684341886080802e-14, 1.4210854715202004e-14)"/><path d="M 99.19999694824219 632.2999877929688 L 89.5999984741211 644.5999755859375 L 74 643.7000122070312 L 82.80000305175781 656.7000122070312 L 77.0999984741211 671.2999877929688 L 92.0999984741211 666.9000244140625 L 104.19999694824219 676.7999877929688 L 104.69999694824219 661.2000122070312 L 117.9000015258789 652.7000122070312 L 103.19999694824219 647.4000244140625 Z" fill="#474E51" transform="matrix(1, 0, 0, 1, 5.684341886080802e-14, 1.4210854715202004e-14)"/><path d="M 1210.0999755859375 439.3999938964844 L 1206.0999755859375 432.20001220703125 L 1202.800048828125 439.79998779296875 L 1194.5999755859375 441.29998779296875 L 1200.800048828125 446.79998779296875 L 1199.800048828125 455.1000061035156 L 1207 450.8999938964844 L 1214.5 454.3999938964844 L 1212.699951171875 446.29998779296875 L 1218.4000244140625 440.20001220703125 Z" fill="#474E51" transform="matrix(1, 0, 0, 1, 5.684341886080802e-14, 1.4210854715202004e-14)"/><path d="M 839.9000244140625 38.79999923706055 L 835.7999877929688 31.5 L 832.5 39.099998474121094 L 824.4000244140625 40.70000076293945 L 830.5999755859375 46.20000076293945 L 829.5999755859375 54.400001525878906 L 836.7000122070312 50.20000076293945 L 844.2000122070312 53.79999923706055 L 842.4000244140625 45.70000076293945 L 848.0999755859375 39.599998474121094 Z" fill="#474E51" transform="matrix(1, 0, 0, 1, 5.684341886080802e-14, 1.4210854715202004e-14)"/><path d="M 1221.5999755859375 291.20001220703125 L 1224.199951171875 299.5 L 1229.199951171875 292.3999938964844 L 1237.9000244140625 292.3999938964844 L 1232.699951171875 285.5 L 1235.4000244140625 277.29998779296875 L 1227.199951171875 280.1000061035156 L 1220.199951171875 275 L 1220.300048828125 283.70001220703125 L 1213.300048828125 288.70001220703125 Z" fill="#474E51" transform="matrix(1, 0, 0, 1, 5.684341886080802e-14, 1.4210854715202004e-14)"/><path d="M 988.0999755859375 121.0999984741211 L 1005.5999755859375 109.19999694824219 L 1025.199951171875 116.80000305175781 L 1019.2999877929688 96.5999984741211 L 1032.699951171875 80.19999694824219 L 1011.5999755859375 79.5999984741211 L 1000.2000122070312 61.900001525878906 L 993 81.69999694824219 L 972.5999755859375 87.0999984741211 L 989.2999877929688 100 Z" fill="#474E51" transform="matrix(1, 0, 0, 1, 5.684341886080802e-14, 1.4210854715202004e-14)"/><path d="M 1058.4000244140625 353.5 L 1047 335.79998779296875 L 1039.9000244140625 355.6000061035156 L 1019.5 361 L 1036.199951171875 373.8999938964844 L 1035 395 L 1052.4000244140625 383.1000061035156 L 1072.0999755859375 390.70001220703125 L 1066.199951171875 370.5 L 1079.5 354.1000061035156 Z" fill="#474E51" transform="matrix(1, 0, 0, 1, 5.684341886080802e-14, 1.4210854715202004e-14)"/><path d="M 916.2000122070312 40.70000076293945 L 910.7000122070312 34.5 L 909.0999755859375 42.70000076293945 L 901.5 46 L 908.7999877929688 50 L 909.5999755859375 58.29999923706055 L 915.7000122070312 52.599998474121094 L 923.7999877929688 54.400001525878906 L 920.2000122070312 46.900001525878906 L 924.4000244140625 39.70000076293945 Z" fill="#474E51" transform="matrix(1, 0, 0, 1, 5.684341886080802e-14, 1.4210854715202004e-14)"/><path d="M 453 69.4000015258789 L 471.5 59 L 490.6000061035156 68.4000015258789 L 486.3999938964844 47.5 L 501.20001220703125 32.29999923706055 L 480.1000061035156 29.799999237060547 L 470.20001220703125 11 L 461.29998779296875 30.299999237060547 L 440.3999938964844 33.900001525878906 L 456 48.29999923706055 Z" fill="#474E51" transform="matrix(1, 0, 0, 1, 5.684341886080802e-14, 1.4210854715202004e-14)"/><path d="M 1054.5999755859375 163.1999969482422 L 1059 159.89999389648438 L 1064.199951171875 161.6999969482422 L 1062.5 156.5 L 1065.800048828125 152.10000610351562 L 1060.300048828125 152.1999969482422 L 1057.0999755859375 147.6999969482422 L 1055.5 152.89999389648438 L 1050.199951171875 154.60000610351562 L 1054.699951171875 157.6999969482422 Z" fill="#474E51" transform="matrix(1, 0, 0, 1, 5.684341886080802e-14, 1.4210854715202004e-14)"/><path d="M 1191.0999755859375 79.80000305175781 L 1187 70.5 L 1192.300048828125 61.900001525878906 L 1182.199951171875 62.900001525878906 L 1175.5999755859375 55.20000076293945 L 1173.5 65.0999984741211 L 1164.199951171875 69 L 1172.9000244140625 74.0999984741211 L 1173.699951171875 84.0999984741211 L 1181.199951171875 77.4000015258789 Z" fill="#474E51" transform="matrix(1, 0, 0, 1, 5.684341886080802e-14, 1.4210854715202004e-14)"/><path d="M 1250.0999755859375 67.4000015258789 L 1264.5999755859375 57.70000076293945 L 1280.800048828125 64.0999984741211 L 1276.0999755859375 47.400001525878906 L 1287.300048828125 34 L 1269.800048828125 33.29999923706055 L 1260.5 18.5 L 1254.5 34.900001525878906 L 1237.5999755859375 39.20000076293945 L 1251.300048828125 50 Z" fill="#474E51" transform="matrix(1, 0, 0, 1, 5.684341886080802e-14, 1.4210854715202004e-14)"/><path d="M 875.5999755859375 131.5 L 891.7999877929688 138 L 887.0999755859375 121.19999694824219 L 898.2000122070312 107.80000305175781 L 880.7999877929688 107.0999984741211 L 871.5 92.30000305175781 L 865.5 108.69999694824219 L 848.5999755859375 113 L 862.2999877929688 123.80000305175781 L 861.0999755859375 141.1999969482422 Z" fill="#474E51" transform="matrix(1, 0, 0, 1, 5.684341886080802e-14, 1.4210854715202004e-14)"/><path d="M 1320.199951171875 143 L 1309.199951171875 141.3000030517578 L 1304.4000244140625 131.3000030517578 L 1299.4000244140625 141.1999969482422 L 1288.300048828125 142.6999969482422 L 1296.199951171875 150.60000610351562 L 1294.300048828125 161.5 L 1304.199951171875 156.39999389648438 L 1314 161.6999969482422 L 1312.199951171875 150.6999969482422 Z" fill="#474E51" transform="matrix(1, 0, 0, 1, 5.684341886080802e-14, 1.4210854715202004e-14)"/><path d="M 1157.0999755859375 187.5 L 1152.300048828125 177.5 L 1147.199951171875 187.5 L 1136.199951171875 189 L 1144.0999755859375 196.8000030517578 L 1142.0999755859375 207.8000030517578 L 1152 202.6999969482422 L 1161.9000244140625 207.89999389648438 L 1160.0999755859375 196.89999389648438 L 1168.0999755859375 189.1999969482422 Z" fill="#474E51" transform="matrix(1, 0, 0, 1, 5.684341886080802e-14, 1.4210854715202004e-14)"/><path d="M 1348.4000244140625 186.3000030517578 L 1342.300048828125 199.8000030517578 L 1327.699951171875 202.39999389648438 L 1338.699951171875 212.3000030517578 L 1336.5999755859375 227 L 1349.5 219.6999969482422 L 1362.800048828125 226.10000610351562 L 1359.800048828125 211.60000610351562 L 1370 201 L 1355.4000244140625 199.3000030517578 Z" fill="#474E51" transform="matrix(1, 0, 0, 1, 5.684341886080802e-14, 1.4210854715202004e-14)"/><path d="M 1040.800048828125 495.3999938964844 L 1033.9000244140625 482.29998779296875 L 1027.800048828125 495.79998779296875 L 1013.2000122070312 498.3999938964844 L 1024.0999755859375 508.3999938964844 L 1022.0999755859375 523 L 1035 515.7000122070312 L 1048.199951171875 522.0999755859375 L 1045.300048828125 507.70001220703125 L 1055.5 497 Z" fill="#474E51" transform="matrix(1, 0, 0, 1, 5.684341886080802e-14, 1.4210854715202004e-14)"/><path d="M 1350 271.29998779296875 L 1343.300048828125 280.70001220703125 L 1331.699951171875 280.5 L 1338.5 289.79998779296875 L 1334.699951171875 300.79998779296875 L 1345.699951171875 297.1000061035156 L 1355 304.1000061035156 L 1354.9000244140625 292.6000061035156 L 1364.4000244140625 285.8999938964844 L 1353.4000244140625 282.3999938964844 Z" fill="#474E51" transform="matrix(1, 0, 0, 1, 5.684341886080802e-14, 1.4210854715202004e-14)"/><path d="M 238.6999969482422 779.2000122070312 L 235.39999389648438 768.0999755859375 L 228.60000610351562 777.5 L 217 777.2999877929688 L 223.89999389648438 786.5999755859375 L 220.10000610351562 797.5 L 231.10000610351562 793.9000244140625 L 240.3000030517578 800.9000244140625 L 240.1999969482422 789.2999877929688 L 249.8000030517578 782.7000122070312 Z" fill="#474E51" transform="matrix(1, 0, 0, 1, 5.684341886080802e-14, 1.4210854715202004e-14)"/><path d="M 889.0999755859375 614 L 885.7000122070312 602.9000244140625 L 878.9000244140625 612.2999877929688 L 867.4000244140625 612.0999755859375 L 874.2000122070312 621.4000244140625 L 870.4000244140625 632.4000244140625 L 881.4000244140625 628.7000122070312 L 890.5999755859375 635.7000122070312 L 890.5999755859375 624.0999755859375 L 900.0999755859375 617.5 Z" fill="#474E51" transform="matrix(1, 0, 0, 1, 5.684341886080802e-14, 1.4210854715202004e-14)"/><path d="M 1202.9000244140625 386.29998779296875 L 1213.9000244140625 382.70001220703125 L 1223.0999755859375 389.70001220703125 L 1223.0999755859375 378.1000061035156 L 1232.5999755859375 371.5 L 1221.5 367.8999938964844 L 1218.199951171875 356.8999938964844 L 1211.4000244140625 366.29998779296875 L 1199.800048828125 366 L 1206.699951171875 375.3999938964844 Z" fill="#474E51" transform="matrix(1, 0, 0, 1, 5.684341886080802e-14, 1.4210854715202004e-14)"/><path d="M 1141.5999755859375 248.6999969482422 L 1132.5 259.29998779296875 L 1118.699951171875 257.79998779296875 L 1126 269.70001220703125 L 1120.300048828125 282.5 L 1133.9000244140625 279.20001220703125 L 1144.199951171875 288.5 L 1145.300048828125 274.6000061035156 L 1157.4000244140625 267.6000061035156 L 1144.5 262.29998779296875 Z" fill="#474E51" transform="matrix(1, 0, 0, 1, 5.684341886080802e-14, 1.4210854715202004e-14)"/><path d="M 1201.199951171875 555.5999755859375 L 1197.800048828125 544.5 L 1191.0999755859375 553.9000244140625 L 1179.5 553.7000122070312 L 1186.300048828125 563 L 1182.5 574 L 1193.5 570.2999877929688 L 1202.800048828125 577.2999877929688 L 1202.699951171875 565.7000122070312 L 1212.199951171875 559.0999755859375 Z" fill="#474E51" transform="matrix(1, 0, 0, 1, 5.684341886080802e-14, 1.4210854715202004e-14)"/><path d="M 1144.199951171875 795.9000244140625 L 1140.9000244140625 784.7999877929688 L 1134.0999755859375 794.2000122070312 L 1122.5 793.9000244140625 L 1129.4000244140625 803.2999877929688 L 1125.5999755859375 814.2000122070312 L 1136.5999755859375 810.5999755859375 L 1145.800048828125 817.5999755859375 L 1145.800048828125 806 L 1155.300048828125 799.4000244140625 Z" fill="#474E51" transform="matrix(1, 0, 0, 1, 5.684341886080802e-14, 1.4210854715202004e-14)"/><path d="M 1343.0999755859375 495 L 1340.4000244140625 487.8999938964844 L 1336.4000244140625 494.3999938964844 L 1328.9000244140625 494.79998779296875 L 1333.800048828125 500.5 L 1331.9000244140625 507.8999938964844 L 1338.9000244140625 504.8999938964844 L 1345.199951171875 509 L 1344.5999755859375 501.5 L 1350.5 496.70001220703125 Z" fill="#474E51" transform="matrix(1, 0, 0, 1, 5.684341886080802e-14, 1.4210854715202004e-14)"/><path d="M 1332.4000244140625 649.5999755859375 L 1338.300048828125 645.2000122070312 L 1345.199951171875 647.5999755859375 L 1342.9000244140625 640.5999755859375 L 1347.199951171875 634.7000122070312 L 1339.9000244140625 634.7999877929688 L 1335.699951171875 628.9000244140625 L 1333.5 635.9000244140625 L 1326.5 638 L 1332.5 642.2999877929688 Z" fill="#474E51" transform="matrix(1, 0, 0, 1, 5.684341886080802e-14, 1.4210854715202004e-14)"/><path d="M 223.60000610351562 655.7999877929688 L 236.89999389648438 665.0999755859375 L 236.3000030517578 648.9000244140625 L 249.3000030517578 639.2000122070312 L 233.60000610351562 634.7999877929688 L 228.39999389648438 619.4000244140625 L 219.39999389648438 632.9000244140625 L 203.10000610351562 633.2000122070312 L 213.1999969482422 645.9000244140625 L 208.39999389648438 661.4000244140625 Z" fill="#474E51" transform="matrix(1, 0, 0, 1, 5.684341886080802e-14, 1.4210854715202004e-14)"/><path d="M 159.1999969482422 694.0999755859375 L 155.89999389648438 683 L 149.10000610351562 692.4000244140625 L 137.5 692.2000122070312 L 144.39999389648438 701.5 L 140.60000610351562 712.5 L 151.60000610351562 708.9000244140625 L 160.8000030517578 715.9000244140625 L 160.8000030517578 704.2999877929688 L 170.3000030517578 697.5999755859375 Z" fill="#474E51" transform="matrix(1, 0, 0, 1, 5.684341886080802e-14, 1.4210854715202004e-14)"/><path d="M 1291.199951171875 721.2999877929688 L 1286.699951171875 726.5999755859375 L 1279.699951171875 725.9000244140625 L 1283.4000244140625 731.7999877929688 L 1280.5999755859375 738.2000122070312 L 1287.300048828125 736.5999755859375 L 1292.5 741.2000122070312 L 1293.0999755859375 734.2999877929688 L 1299.0999755859375 730.7999877929688 L 1292.699951171875 728.0999755859375 Z" fill="#474E51" transform="matrix(1, 0, 0, 1, 5.684341886080802e-14, 1.4210854715202004e-14)"/><path d="M 133.399994 856.299988 H 1266.599945 V 979.999985 H 133.399994 V 856.299988 Z" fill="#F4D293" transform="matrix(1, 0, 0, 1, 5.684341886080802e-14, 1.4210854715202004e-14)"/><path d="M 371.399994 856.299988 H 1028.600006 V 979.999985 H 371.399994 V 856.299988 Z" fill="#E3B886" transform="matrix(1, 0, 0, 1, 5.684341886080802e-14, 1.4210854715202004e-14)"/><path d="M 397.700012 745.299988 H 1002.299988 V 979.999985 H 397.700012 V 745.299988 Z" fill="#FFE9AC" transform="matrix(1, 0, 0, 1, 5.684341886080802e-14, 1.4210854715202004e-14)"/><path fill="#F7DAA3" d="M1002.3,745.3h-72.2c-27.8,68.2-133.5,210.5-532.4,212V980h604.6V745.3z" transform="matrix(1, 0, 0, 1, 5.684341886080802e-14, 1.4210854715202004e-14)"/><path fill="#D4D8A7" d="M921.3,350.3c-7.7-14.5-20.2-25.1-35.1-29.7c-17.4-5.4-34.1-5.7-48.5-1.1c-12.7,4.1-22.9,12-30.2,23.1&#10;&#9;&#9;&#9;c0.9-16.7,1.3-30.3,1.4-37.1c0.1-2.6-2.2-4.6-5-4.6h-27.3h-40.8H700H596.2c-2.8,0-5,2.1-5,4.6c0.1,6.8,0.5,20.3,1.4,37.1&#10;&#9;&#9;&#9;c-7.3-11.1-17.6-19-30.2-23.1c-14.4-4.7-31.2-4.3-48.5,1.1c-15,4.6-27.4,15.2-35.1,29.7c-8.9,16.8-10.4,36.8-3.9,53.5&#10;&#9;&#9;&#9;c11.2,28.8,50.1,69.7,102.8,92c43.8,18.5,44.4,25.6,44.9,31.3l0.1,1c0.3,3.4-0.5,6.3-2.1,7.7c-2.2,1.8-6.7,1.4-9.2,1&#10;&#9;&#9;&#9;c-0.8-0.1-1-0.3-1.2-0.9c-0.4-0.9-0.4-2.1-0.2-2.8c3.9-0.8,6.9-4.1,6.9-7.9c0.1-4.5-3.9-8.3-8.9-8.3c-8.4-0.1-15.1,6.4-16.1,15.4&#10;&#9;&#9;&#9;c-1,10.3,5.8,19,16.3,20.7c2.4,0.4,4.6,0.6,6.6,0.6c8.9,0.1,14.5-2.9,17.9-5.7c5.3-4.4,8.1-11.3,7.9-19&#10;&#9;&#9;&#9;c6.7,12.1,12,20.4,13.3,22.5c0,0,0,0,0,0c0.1,0.1,0.1,0.2,0.2,0.3c0,0,0,0,0,0c0,0,0.1,0.1,0.1,0.1c0,0,0,0.1,0,0.1h-0.2v9.9&#10;&#9;&#9;&#9;c0,6.3,3.4,12.2,9.1,15.8c5.7,3.6,9.2,9.5,9.2,15.8v26.9h-7.9c-12.3,0-22.3,9.2-22.3,20.5v11.5h-0.8c-12.3,0-22.3,9.2-22.3,20.5&#10;&#9;&#9;&#9;V685h-11.1c-12.3,0-22.3,9.2-22.3,20.5v39.8h184.1h44.4v-39.8c0-11.3-10-20.5-22.3-20.5h-11.1V673c0-11.3-10-20.5-22.3-20.5h-0.8&#10;&#9;&#9;&#9;V641c0-11.3-10-20.5-22.3-20.5h-7.9v-26.9c0-6.4,3.5-12.3,9.2-15.8c5.7-3.6,9.1-9.5,9.1-15.8v-9.9h-0.2c0,0,5.8-8.9,13.7-23.1&#10;&#9;&#9;&#9;c-0.2,7.7,2.7,14.5,7.9,19c3.4,2.8,9,5.8,17.9,5.7c2,0,4.2-0.2,6.6-0.6c10.5-1.7,17.3-10.4,16.3-20.7c-0.9-9-7.7-15.5-16.1-15.4&#10;&#9;&#9;&#9;c-5,0.1-8.9,3.8-8.9,8.3c0.1,3.9,3,7.1,6.9,7.9c0.2,0.8,0.2,1.9-0.2,2.8c-0.2,0.5-0.5,0.7-1.2,0.9c-2.5,0.4-7,0.8-9.2-1&#10;&#9;&#9;&#9;c-1.6-1.3-2.4-4.3-2.1-7.7l0.1-1c0.5-5.7,1.1-12.8,44.9-31.3c52.7-22.3,91.6-63.2,102.8-92C931.6,387.1,930.2,367.1,921.3,350.3z&#10;&#9;&#9;&#9; M585.2,480.9c-47.7-20.2-83.8-57.6-93.5-82.6c-4.8-12.4-3.6-28,3.1-40.8c5.6-10.5,14.3-18.1,24.7-21.3&#10;&#9;&#9;&#9;c14.1-4.3,48.3-10.7,62.4,23.9c4.7,11.5,4.8,21,0.4,27.7c-3.3,5-9.4,8.4-16.3,9.1c-5.4,0.6-10.6-4.8-11.9-10&#10;&#9;&#9;&#9;c-1.2-4.8,0.3-6.7,0.8-7.3c2.4-3.1,8.1-4.3,10-4.5c4.9-0.5,8.5-4.5,8-9c-0.5-4.5-4.9-7.8-9.8-7.4c-1.5,0.1-15.1,1.6-22.7,11.2&#10;&#9;&#9;&#9;c-3.1,3.9-6.3,10.7-3.8,20.6c3,12.5,15.6,24.4,31.5,22.8c12-1.3,22.8-7.3,29-16.1c2.4,20.6,5.7,40.7,10.4,56.1&#10;&#9;&#9;&#9;c5.3,17.5,12.6,34.9,19.8,50C619.3,497,606.4,489.8,585.2,480.9z M908.2,398.3c-9.7,25-45.8,62.4-93.5,82.6&#10;&#9;&#9;&#9;c-21.2,9-34.1,16.1-42.1,22.3c7.2-15.1,14.5-32.4,19.8-50c4.6-15.4,8-35.5,10.4-56.1c6.3,8.8,17,14.9,29,16.1&#10;&#9;&#9;&#9;c15.8,1.7,28.4-10.3,31.5-22.8c2.4-10-0.7-16.7-3.8-20.6c-7.6-9.6-21.1-11.1-22.7-11.2c-4.9-0.4-9.3,2.9-9.8,7.4&#10;&#9;&#9;&#9;c-0.5,4.5,3.1,8.5,8,9c1.8,0.2,7.6,1.4,10,4.5c0.5,0.6,2,2.6,0.8,7.3c-1.3,5.2-6.5,10.5-11.9,10c-6.9-0.7-13-4.1-16.3-9.1&#10;&#9;&#9;&#9;c-4.4-6.6-4.3-16.2,0.4-27.7c14.1-34.6,48.3-28.3,62.4-23.9c10.4,3.2,19.1,10.8,24.7,21.3C911.9,370.3,913.1,385.9,908.2,398.3z" transform="matrix(1, 0, 0, 1, 5.684341886080802e-14, 1.4210854715202004e-14)"/><path fill="#D4D8A7" d="M657.6,223.3l18.2,16.3c0.6,0.6,0.9,1.4,0.8,2.2l-3.8,20.1l-0.6,3c0,0.1,0,0.3,0,0.4c0,0.4,0.1,0.7,0.2,1&#10;&#9;&#9;&#9;c0.1,0.3,0.4,0.6,0.6,0.8c0.1,0.1,0.2,0.1,0.3,0.2c0.1,0,0.2,0.1,0.2,0.1c0,0,0,0,0,0c0.2,0.1,0.4,0.2,0.6,0.2c0,0,0,0,0.1,0&#10;&#9;&#9;&#9;c0,0,0.1,0,0.1,0c0.2,0,0.3,0,0.5,0.1c0,0,0.1,0,0.1,0c0.2,0,0.4,0,0.6-0.1c0,0,0,0,0.1,0c0.2,0,0.4-0.1,0.6-0.2l22.5-10.9&#10;&#9;&#9;&#9;c0.8-0.4,1.7-0.4,2.5,0l22.5,10.9c1.5,0.7,3.2,0,3.8-1.2c0.1-0.3,0.2-0.7,0.2-1c0-0.1,0-0.2,0-0.4l-4.3-23c-0.1-0.6,0-1.2,0.4-1.7&#10;&#9;&#9;&#9;c0.1-0.2,0.3-0.3,0.4-0.5l18.2-16.3c0.2-0.2,0.4-0.4,0.5-0.6c0.3-0.4,0.4-0.9,0.3-1.3c-0.1-1.1-0.9-2.2-2.3-2.3l-25.2-3.4&#10;&#9;&#9;&#9;c-0.9-0.1-1.6-0.6-2-1.4l-3.3-6.1v0l-8-14.8c-1-1.8-3.9-1.8-4.9,0l-11.3,21c-0.4,0.7-1.2,1.2-2,1.4l-25.2,3.4&#10;&#9;&#9;&#9;C656.8,219.4,655.9,221.9,657.6,223.3z" transform="matrix(1, 0, 0, 1, 5.684341886080802e-14, 1.4210854715202004e-14)"/><path fill="#D4D8A7" d="M595.8,262.1c0.5,0.4,0.7,1,0.6,1.6l-2.5,13.4h0l-0.7,3.8c0,0.1,0,0.3,0,0.4c0,0,0,0,0,0c0,0,0,0,0,0&#10;&#9;&#9;&#9;c0,0.1,0,0.2,0.1,0.3c0,0.1,0,0.1,0.1,0.2c0,0.1,0.1,0.2,0.1,0.2c0,0.1,0.1,0.1,0.1,0.2c0,0,0,0.1,0.1,0.1c0,0,0.1,0.1,0.1,0.1&#10;&#9;&#9;&#9;c0.1,0.1,0.1,0.1,0.2,0.2c0.1,0.1,0.1,0.1,0.2,0.1c0.1,0,0.2,0.1,0.2,0.1c0.1,0,0.1,0.1,0.2,0.1c0.1,0,0.2,0,0.3,0.1&#10;&#9;&#9;&#9;c0.1,0,0.1,0,0.2,0c0,0,0,0,0.1,0c0.1,0,0.2,0,0.4,0c0.1,0,0.1,0,0.2,0c0.2,0,0.4-0.1,0.5-0.2l16.8-8.1c0.1-0.1,0.3-0.1,0.5-0.2&#10;&#9;&#9;&#9;c0.5-0.1,1-0.1,1.4,0.2l16.8,8.1c0.4,0.2,0.8,0.2,1.1,0.2c0.5,0,1.1-0.3,1.4-0.7c0.3-0.4,0.5-0.9,0.4-1.5l-3.2-17.2&#10;&#9;&#9;&#9;c0-0.2,0-0.3,0-0.5c0-0.1,0-0.3,0.1-0.4c0.1-0.3,0.3-0.5,0.5-0.8l13.6-12.2c0.1-0.1,0.2-0.2,0.3-0.4c0.1-0.2,0.2-0.3,0.2-0.5&#10;&#9;&#9;&#9;c0-0.2,0.1-0.3,0-0.5c0-0.3-0.1-0.7-0.3-0.9c-0.3-0.4-0.8-0.7-1.4-0.8l-10.1-1.3l0,0l-8.7-1.2c-0.7-0.1-1.2-0.5-1.5-1l-2.5-4.6v0&#10;&#9;&#9;&#9;l-6-11.1c-0.7-1.4-2.9-1.4-3.6,0l-8.4,15.6c-0.3,0.5-0.9,0.9-1.5,1l-18.8,2.5c-1.7,0.2-2.3,2.1-1.1,3.2L595.8,262.1z" transform="matrix(1, 0, 0, 1, 5.684341886080802e-14, 1.4210854715202004e-14)"/><path fill="#D4D8A7" d="M768.1,262.1c0.5,0.4,0.7,1,0.6,1.6l-3.2,17.2c0,0.1,0,0.3,0,0.4c0,0,0,0,0,0c0,0,0,0,0,0&#10;&#9;&#9;&#9;c0,0.1,0,0.2,0.1,0.3c0,0.1,0,0.1,0.1,0.2c0,0.1,0.1,0.2,0.1,0.2c0,0.1,0.1,0.1,0.1,0.2c0.1,0.1,0.1,0.1,0.2,0.2&#10;&#9;&#9;&#9;c0.1,0.1,0.1,0.1,0.2,0.2c0.1,0.1,0.1,0.1,0.2,0.1c0.1,0,0.2,0.1,0.2,0.1c0.1,0,0.1,0.1,0.2,0.1c0.1,0,0.2,0,0.3,0.1&#10;&#9;&#9;&#9;c0.1,0,0.1,0,0.2,0c0.1,0,0.2,0,0.4,0c0.1,0,0.1,0,0.2,0c0.2,0,0.4-0.1,0.5-0.2l16.8-8.1c0.3-0.1,0.6-0.2,0.9-0.2s0.6,0.1,0.9,0.2&#10;&#9;&#9;&#9;l16.8,8.1c0.2,0.1,0.4,0.1,0.6,0.2c0.2,0,0.4,0,0.6,0c0.4,0,0.7-0.2,1-0.4s0.5-0.5,0.7-0.8s0.2-0.7,0.1-1l-3.2-17.2&#10;&#9;&#9;&#9;c0-0.2,0-0.3,0-0.5c0-0.1,0-0.3,0.1-0.4c0.1-0.3,0.3-0.5,0.5-0.8l13.6-12.2v0h0c0.7-0.7,0.8-1.7,0.3-2.3c-0.3-0.4-0.8-0.7-1.4-0.8&#10;&#9;&#9;&#9;l-10.1-1.3l0,0l-8.7-1.2c-0.7-0.1-1.2-0.5-1.5-1l-2.5-4.6l0,0l-6-11.1c-0.7-1.4-2.9-1.4-3.6,0l-8.4,15.6c-0.3,0.5-0.9,0.9-1.5,1&#10;&#9;&#9;&#9;l-18.8,2.5c-1.7,0.2-2.3,2.1-1.1,3.2L768.1,262.1z" transform="matrix(1, 0, 0, 1, 5.684341886080802e-14, 1.4210854715202004e-14)"/><g transform="matrix(1, 0, 0, 1, 5.684341886080802e-14, 1.4210854715202004e-14)">
			<g>
				<g>
					<g>
						<g>
							<g>
								<path fill="#F89520" d="M614.9,536.5c-2,0-4.2-0.2-6.6-0.6c-10.5-1.8-17.3-11.3-16.3-22.6c0.9-9.8,7.7-16.9,16.1-16.8&#10;&#9;&#9;&#9;&#9;&#9;&#9;&#9;&#9;&#9;c5,0.1,8.9,4.1,8.9,9.1c-0.1,4.2-3,7.7-6.9,8.6c-0.2,0.8-0.2,2.1,0.2,3.1c0.2,0.6,0.5,0.8,1.2,0.9c2.5,0.4,7,0.9,9.2-1.1&#10;&#9;&#9;&#9;&#9;&#9;&#9;&#9;&#9;&#9;c1.6-1.5,2.4-4.7,2.1-8.4l-0.1-1.1c-0.5-6.2-1.1-14-44.9-34.1c-52.7-24.3-91.6-68.9-102.8-100.3c-6.5-18.2-5-40,3.9-58.3&#10;&#9;&#9;&#9;&#9;&#9;&#9;&#9;&#9;&#9;c7.7-15.9,20.2-27.4,35.1-32.4c17.4-5.8,34.1-6.2,48.5-1.1c16.7,5.9,29.3,19,36.4,37.9c8.4,22.6,4.1,37.4-1.1,45.8&#10;&#9;&#9;&#9;&#9;&#9;&#9;&#9;&#9;&#9;c-6.2,10.1-17.2,17-29.6,18.4c-15.8,1.8-28.4-11.2-31.5-24.8c-2.4-10.9,0.7-18.2,3.8-22.5c7.6-10.5,21.1-12.1,22.7-12.2&#10;&#9;&#9;&#9;&#9;&#9;&#9;&#9;&#9;&#9;c4.9-0.5,9.3,3.1,9.8,8.1c0.5,4.9-3.1,9.3-8,9.8c-1.8,0.2-7.6,1.6-10,4.9c-0.5,0.7-2,2.8-0.8,8c1.3,5.6,6.5,11.5,11.9,10.9&#10;&#9;&#9;&#9;&#9;&#9;&#9;&#9;&#9;&#9;c6.9-0.8,13-4.5,16.3-9.9c4.4-7.2,4.3-17.6-0.4-30.2c-14.1-37.7-48.3-30.8-62.4-26.1c-10.4,3.5-19.1,11.7-24.7,23.2&#10;&#9;&#9;&#9;&#9;&#9;&#9;&#9;&#9;&#9;c-6.7,13.9-7.9,30.9-3.1,44.5c9.7,27.2,45.8,68,93.5,90c49.5,22.8,54.1,34.7,55.3,49l0.1,1c0.8,9.4-2,17.9-7.8,23.2&#10;&#9;&#9;&#9;&#9;&#9;&#9;&#9;&#9;&#9;C629.4,533.4,623.7,536.6,614.9,536.5z"/>
							</g>
						</g>
						<g>
							<path fill="#F18621" d="M785.1,536.5c2,0,4.2-0.2,6.6-0.6c10.5-1.8,17.3-11.3,16.3-22.6c-0.9-9.8-7.7-16.9-16.1-16.8&#10;&#9;&#9;&#9;&#9;&#9;&#9;&#9;&#9;c-5,0.1-8.9,4.1-8.9,9.1c0.1,4.2,3,7.7,6.9,8.6c0.2,0.8,0.2,2.1-0.2,3.1c-0.2,0.6-0.5,0.8-1.2,0.9c-2.5,0.4-7,0.9-9.2-1.1&#10;&#9;&#9;&#9;&#9;&#9;&#9;&#9;&#9;c-1.6-1.5-2.4-4.7-2.1-8.4l0.1-1.1c0.5-6.2,1.1-14,44.9-34.1c52.7-24.3,91.6-68.9,102.8-100.3c6.5-18.2,5-40-3.9-58.3&#10;&#9;&#9;&#9;&#9;&#9;&#9;&#9;&#9;c-7.7-15.9-20.2-27.4-35.1-32.4c-17.4-5.8-34.1-6.2-48.5-1.1c-16.7,5.9-29.3,19-36.4,37.9c-8.4,22.6-4.1,37.4,1.1,45.8&#10;&#9;&#9;&#9;&#9;&#9;&#9;&#9;&#9;c6.2,10.1,17.2,17,29.6,18.4c15.8,1.8,28.4-11.2,31.5-24.8c2.4-10.9-0.7-18.2-3.8-22.5c-7.6-10.5-21.1-12.1-22.7-12.2&#10;&#9;&#9;&#9;&#9;&#9;&#9;&#9;&#9;c-4.9-0.5-9.3,3.1-9.8,8.1c-0.5,4.9,3.1,9.3,8,9.8c1.8,0.2,7.6,1.6,10,4.9c0.5,0.7,2,2.8,0.8,8c-1.3,5.6-6.5,11.5-11.9,10.9&#10;&#9;&#9;&#9;&#9;&#9;&#9;&#9;&#9;c-6.9-0.8-13-4.5-16.3-9.9c-4.4-7.2-4.3-17.6,0.4-30.2c14.1-37.7,48.3-30.8,62.4-26.1c10.4,3.5,19.1,11.7,24.7,23.2&#10;&#9;&#9;&#9;&#9;&#9;&#9;&#9;&#9;c6.7,13.9,7.9,30.9,3.1,44.5c-9.7,27.2-45.8,68-93.5,90c-49.5,22.8-54.1,34.7-55.3,49l-0.1,1c-0.8,9.4,2,17.9,7.8,23.2&#10;&#9;&#9;&#9;&#9;&#9;&#9;&#9;&#9;C770.6,533.4,776.3,536.6,785.1,536.5z"/>
						</g>
					</g>
				</g>
				<path fill="#FBAB1B" d="M808.8,266c0.1-2.8-2.2-5.1-5-5.1H700H596.2c-2.8,0-5,2.3-5,5.1c0.4,22.3,3,113,16.3,161&#10;&#9;&#9;&#9;&#9;&#9;c15.2,55,46.8,107.8,46.8,107.8h-0.2v10.8c0,6.9,3.5,13.4,9.2,17.3c5.7,3.9,9.1,10.3,9.1,17.2v30.5H700h27.5V580&#10;&#9;&#9;&#9;&#9;&#9;c0-6.9,3.5-13.4,9.2-17.3c5.7-3.9,9.1-10.3,9.1-17.2v-10.8h-0.2c0,0,31.6-52.8,46.8-107.8C805.8,379,808.4,288.3,808.8,266z"/>
				<path fill="#FFC611" d="M678.5,604.5V580c0-8.9-4.4-17.2-11.7-22.2c-4.1-2.8-6.6-7.4-6.6-12.3v-4.8h4.7l-5.4-9.1&#10;&#9;&#9;&#9;&#9;&#9;c-0.3-0.5-31.4-52.8-46.2-106.3c-13-47-15.6-137.9-16.1-158.4h205.6c-0.4,20.5-3.1,111.4-16.1,158.4&#10;&#9;&#9;&#9;&#9;&#9;c-14.8,53.5-45.9,105.8-46.2,106.3l-5.4,9.1l4.7,0v4.8c0,4.9-2.4,9.5-6.5,12.3c-7.4,5-11.8,13.3-11.8,22.2v24.5H678.5z"/>
				<path fill="#F89520" d="M728.9,439c-10.2,58.2-46.2,79.2-91.7,63.6c9.5,19.4,17.2,32.2,17.2,32.2h-0.2v10.8&#10;&#9;&#9;&#9;&#9;&#9;c0,6.9,3.5,13.4,9.2,17.3c5.7,3.9,9.1,10.3,9.1,17.2v30.5H700h27.5V580c0-6.9,3.5-13.4,9.2-17.3c5.7-3.9,9.1-10.3,9.1-17.2&#10;&#9;&#9;&#9;&#9;&#9;v-10.8h-0.2c0,0,31.6-52.8,46.8-107.8c13.3-48,15.9-138.6,16.3-161c0.1-2.8-2.2-5.1-5-5.1h-68.1&#10;&#9;&#9;&#9;&#9;&#9;C736.7,306.7,737.2,391.6,728.9,439z"/>
				<path fill="#F18621" d="M654.2,545.5c0,6.9,3.4,13.3,9.1,17.2c5.7,3.9,9.2,10.3,9.2,17.3v30.5H700h27.5V580&#10;&#9;&#9;&#9;&#9;&#9;c0-6.9,3.5-13.4,9.2-17.3c5.7-3.9,9.1-10.3,9.1-17.2v-10.8h-0.2c0,0,31.6-52.8,46.8-107.8c13.3-48,15.9-138.6,16.3-161&#10;&#9;&#9;&#9;&#9;&#9;c0.1-2.8-2.2-5.1-5-5.1h-27.3c1.6,40.5,3.3,170.3-37.1,233.3c-29.6,46.2-64.6,45-87.1,37.1c1.3,2.2,2,3.4,2,3.4h-0.2V545.5z"/>
				<path fill="#F89520" d="M735.4,609.3h-70.9c-12.3,0-22.3,10-22.3,22.3v13.5h115.5v-13.5C757.7,619.3,747.8,609.3,735.4,609.3z"/>
				<path fill="#F18621" d="M735.4,609.3h-30c12.3,0,22.3,10,22.3,22.3v13.5h30v-13.5C757.7,619.3,747.8,609.3,735.4,609.3z"/>
				<path fill="#FFC611" d="M758.5,644.2H641.5c-12.3,0-22.3,10-22.3,22.3V680h161.7v-13.5C780.8,654.1,770.9,644.2,758.5,644.2z"/>
				<path fill="#F89520" d="M758.5,644.2h-33.7c12.3,0,22.3,10,22.3,22.3V680h33.7v-13.5C780.8,654.1,770.9,644.2,758.5,644.2z"/>
				<path fill="#15374D" d="M791.9,679.6H608.1c-12.3,0-22.3,10-22.3,22.3v43.4h228.5v-43.4C814.2,689.6,804.2,679.6,791.9,679.6z"/>
				<path fill="#07293D" d="M791.9,679.6h-44.4c12.3,0,22.3,10,22.3,22.3v43.4h44.4v-43.4C814.2,689.6,804.2,679.6,791.9,679.6z"/>
			</g>
			<g>
				<path fill="#FFFFFF" d="M640.5,480.2c-2.3,0-4.4-1.3-5.4-3.5c-1.5-3.4-1.9-4.7-2.9-7.4c-0.3-0.9-0.7-2-1.2-3.5&#10;&#9;&#9;&#9;&#9;&#9;c-1.1-3.1,0.5-6.4,3.6-7.5c3.1-1.1,6.4,0.5,7.5,3.6c0.5,1.5,0.9,2.6,1.2,3.5c0.9,2.6,1.2,3.6,2.5,6.6c1.3,3-0.1,6.4-3.1,7.7&#10;&#9;&#9;&#9;&#9;&#9;C642.1,480,641.3,480.2,640.5,480.2z"/>
			</g>
			<g>
				<path fill="#FFFFFF" d="M629.4,447.8c-2.5,0-4.8-1.6-5.6-4.1c-2.4-7.6-4.2-12.7-5.5-16.5c-2-5.7-3.1-8.9-4-13.5&#10;&#9;&#9;&#9;&#9;&#9;c-0.7-3.2,1.4-6.3,4.6-6.9c3.2-0.7,6.3,1.4,6.9,4.6c0.8,3.8,1.7,6.4,3.6,12c1.3,3.8,3.1,9,5.6,16.7c1,3.1-0.7,6.4-3.8,7.4&#10;&#9;&#9;&#9;&#9;&#9;C630.6,447.8,630,447.8,629.4,447.8z"/>
			</g>
			<g>
				<path fill="#FFFFFF" d="M615.8,393.1c-2.9,0-5.5-2.2-5.8-5.2c-5.9-49-6.6-109.9-6.6-110.5c0-3.2,2.6-5.9,5.8-5.9c0,0,0,0,0.1,0&#10;&#9;&#9;&#9;&#9;&#9;c3.2,0,5.8,2.6,5.9,5.8c0,0.6,0.6,60.8,6.5,109.2c0.4,3.2-1.9,6.2-5.1,6.5C616.3,393.1,616.1,393.1,615.8,393.1z"/>
			</g>
		</g><path fill="#FBAF41" d="M742.4,176.3c1.6-1.6,0.7-4.3-1.5-4.6l-25.2-3.7c-0.9-0.1-1.6-0.7-2-1.5l-11.3-22.8c-1-2-3.9-2-4.9,0&#10;&#9;&#9;&#9;&#9;l-11.3,22.8c-0.4,0.8-1.2,1.4-2,1.5l-25.2,3.7c-2.2,0.3-3.1,3.1-1.5,4.6l18.2,17.8c0.6,0.6,0.9,1.5,0.8,2.4l-4.3,25.1&#10;&#9;&#9;&#9;&#9;c-0.4,2.2,1.9,3.9,3.9,2.9l22.5-11.9c0.8-0.4,1.7-0.4,2.5,0l22.5,11.9c2,1,4.3-0.6,3.9-2.9l-4.3-25.1c-0.2-0.9,0.1-1.8,0.8-2.4&#10;&#9;&#9;&#9;&#9;L742.4,176.3z" transform="matrix(1, 0, 0, 1, 8.526512829121202e-14, 2.1316282072803006e-14)"/><path fill="#F89520" d="M740.9,171.7l-25.2-3.7c-0.9-0.1-1.6-0.7-2-1.5l-3.3-6.7c-0.1,16.5-5.8,42.5-37.2,56.1l-1,5.6&#10;&#9;&#9;&#9;&#9;c-0.4,2.2,1.9,3.9,3.9,2.9l22.5-11.9c0.8-0.4,1.7-0.4,2.5,0l22.5,11.9c2,1,4.3-0.6,3.9-2.9l-4.3-25.1c-0.2-0.9,0.1-1.8,0.8-2.4&#10;&#9;&#9;&#9;&#9;l18.2-17.8C744.1,174.8,743.2,172,740.9,171.7z" transform="matrix(1, 0, 0, 1, 8.526512829121202e-14, 2.1316282072803006e-14)"/><path fill="#F18621" d="M740.9,171.7l-13.5-2c-4,11.6-16.8,37.1-55.2,52.5c0.1,1.9,2.2,3.2,4,2.2l22.5-11.9&#10;&#9;&#9;&#9;&#9;c0.8-0.4,1.7-0.4,2.5,0l22.5,11.9c2,1,4.3-0.6,3.9-2.9l-4.3-25.1c-0.2-0.9,0.1-1.8,0.8-2.4l18.2-17.8&#10;&#9;&#9;&#9;&#9;C744.1,174.8,743.2,172,740.9,171.7z" transform="matrix(1, 0, 0, 1, 8.526512829121202e-14, 2.1316282072803006e-14)"/><g transform="matrix(1, 0, 0, 1, 8.526512829121202e-14, 2.1316282072803006e-14)">
				<path fill="#FBAF41" d="M645.5,205.4c1.2-1.2,0.5-3.2-1.1-3.4l-18.8-2.7c-0.7-0.1-1.2-0.5-1.5-1.1l-8.4-17&#10;&#9;&#9;&#9;&#9;&#9;c-0.7-1.5-2.9-1.5-3.6,0l-8.4,17c-0.3,0.6-0.9,1-1.5,1.1l-18.8,2.7c-1.7,0.2-2.3,2.3-1.1,3.4l13.6,13.3c0.5,0.5,0.7,1.1,0.6,1.8&#10;&#9;&#9;&#9;&#9;&#9;l-3.2,18.7c-0.3,1.7,1.4,2.9,2.9,2.1l16.8-8.8c0.6-0.3,1.3-0.3,1.9,0l16.8,8.8c1.5,0.8,3.2-0.5,2.9-2.1l-3.2-18.7&#10;&#9;&#9;&#9;&#9;&#9;c-0.1-0.7,0.1-1.3,0.6-1.8L645.5,205.4z"/>
				<path fill="#F89520" d="M644.4,201.9l-18.8-2.7c-0.7-0.1-1.2-0.5-1.5-1.1l-2.5-5c-0.1,12.3-4.3,31.7-27.8,41.9l-0.7,4.2&#10;&#9;&#9;&#9;&#9;&#9;c-0.3,1.7,1.4,2.9,2.9,2.1l16.8-8.8c0.6-0.3,1.3-0.3,1.9,0l16.8,8.8c1.5,0.8,3.2-0.5,2.9-2.1l-3.2-18.7&#10;&#9;&#9;&#9;&#9;&#9;c-0.1-0.7,0.1-1.3,0.6-1.8l13.6-13.3C646.7,204.2,646,202.2,644.4,201.9z"/>
				<path fill="#F18621" d="M644.4,201.9l-10.1-1.5c-3,8.6-12.6,27.7-41.2,39.2c0.1,1.4,1.6,2.4,3,1.7l16.8-8.8&#10;&#9;&#9;&#9;&#9;&#9;c0.6-0.3,1.3-0.3,1.9,0l16.8,8.8c1.5,0.8,3.2-0.5,2.9-2.1l-3.2-18.7c-0.1-0.7,0.1-1.3,0.6-1.8l13.6-13.3&#10;&#9;&#9;&#9;&#9;&#9;C646.7,204.2,646,202.2,644.4,201.9z"/>
			</g><path fill="#FBAF41" d="M817.9,205.4c1.2-1.2,0.5-3.2-1.1-3.4l-18.8-2.7c-0.7-0.1-1.2-0.5-1.5-1.1l-8.4-17&#10;&#9;&#9;&#9;&#9;&#9;c-0.7-1.5-2.9-1.5-3.6,0l-8.4,17c-0.3,0.6-0.9,1-1.5,1.1l-18.8,2.7c-1.7,0.2-2.3,2.3-1.1,3.4l13.6,13.3c0.5,0.5,0.7,1.1,0.6,1.8&#10;&#9;&#9;&#9;&#9;&#9;l-3.2,18.7c-0.3,1.7,1.4,2.9,2.9,2.1l16.8-8.8c0.6-0.3,1.3-0.3,1.9,0l16.8,8.8c1.5,0.8,3.2-0.5,2.9-2.1l-3.2-18.7&#10;&#9;&#9;&#9;&#9;&#9;c-0.1-0.7,0.1-1.3,0.6-1.8L817.9,205.4z" transform="matrix(1, 0, 0, 1, 1.1368683772161603e-13, 2.842170943040401e-14)"/><path fill="#F89520" d="M816.7,201.9l-18.8-2.7c-0.7-0.1-1.2-0.5-1.5-1.1l-2.5-5c-0.1,12.3-4.3,31.7-27.8,41.9l-0.7,4.2&#10;&#9;&#9;&#9;&#9;&#9;c-0.3,1.7,1.4,2.9,2.9,2.1l16.8-8.8c0.6-0.3,1.3-0.3,1.9,0l16.8,8.8c1.5,0.8,3.2-0.5,2.9-2.1l-3.2-18.7&#10;&#9;&#9;&#9;&#9;&#9;c-0.1-0.7,0.1-1.3,0.6-1.8l13.6-13.3C819.1,204.2,818.4,202.2,816.7,201.9z" transform="matrix(1, 0, 0, 1, 1.1368683772161603e-13, 2.842170943040401e-14)"/><path fill="#F18621" d="M816.7,201.9l-10.1-1.5c-3,8.6-12.6,27.7-41.2,39.2c0.1,1.4,1.6,2.4,3,1.7l16.8-8.8&#10;&#9;&#9;&#9;&#9;&#9;c0.6-0.3,1.3-0.3,1.9,0l16.8,8.8c1.5,0.8,3.2-0.5,2.9-2.1l-3.2-18.7c-0.1-0.7,0.1-1.3,0.6-1.8l13.6-13.3&#10;&#9;&#9;&#9;&#9;&#9;C819.1,204.2,818.4,202.2,816.7,201.9z" transform="matrix(1, 0, 0, 1, 1.1368683772161603e-13, 2.842170943040401e-14)"/><path d="M 114.900003 266.799988 A 16.6 16.6 0 0 1 98.300003 283.399988 A 16.6 16.6 0 0 1 81.700003 266.799988 A 16.6 16.6 0 0 1 98.300003 250.199987 A 16.6 16.6 0 0 1 114.900003 266.799988 Z" fill="#1C75BC" transform="matrix(1, 0, 0, 1, 2.842170943040401e-14, 7.105427357601002e-15)"/><path d="M 370.499994 343.899994 A 16.6 16.6 0 0 1 353.899994 360.499994 A 16.6 16.6 0 0 1 337.299994 343.899994 A 16.6 16.6 0 0 1 353.899994 327.299994 A 16.6 16.6 0 0 1 370.499994 343.899994 Z" fill="#1C75BC" transform="matrix(1, 0, 0, 1, 2.842170943040401e-14, 7.105427357601002e-15)"/><path fill="#EE2A7B" d="M155.8,288.3c0,4.8,0,12.7-4.9,12.7s-8.8-3.9-8.8-8.8c0-4.8,3.9-8.8,8.8-8.8S155.8,283.4,155.8,288.3z" transform="matrix(1, 0, 0, 1, 2.842170943040401e-14, 7.105427357601002e-15)"/><path d="M 284.6 134.100006 A 16.6 16.6 0 0 1 268 150.700006 A 16.6 16.6 0 0 1 251.4 134.100006 A 16.6 16.6 0 0 1 268 117.500006 A 16.6 16.6 0 0 1 284.6 134.100006 Z" fill="#EEF2C2" transform="matrix(1, 0, 0, 1, 2.842170943040401e-14, 7.105427357601002e-15)"/><path d="M 66.1 196.600006 A 16.6 16.6 0 0 1 49.5 213.200006 A 16.6 16.6 0 0 1 32.9 196.600006 A 16.6 16.6 0 0 1 49.5 180.000006 A 16.6 16.6 0 0 1 66.1 196.600006 Z" fill="#EEF2C2" transform="matrix(1, 0, 0, 1, 2.842170943040401e-14, 7.105427357601002e-15)"/><path d="M 132.400002 67.800003 A 20.5 20.5 0 0 1 111.900002 88.300003 A 20.5 20.5 0 0 1 91.400002 67.800003 A 20.5 20.5 0 0 1 111.900002 47.300003 A 20.5 20.5 0 0 1 132.400002 67.800003 Z" fill="#1C75BC" transform="matrix(1, 0, 0, 1, 2.842170943040401e-14, 7.105427357601002e-15)"/><path d="M 54.299998 104.900002 A 10.7 10.7 0 0 1 43.599998 115.600001 A 10.7 10.7 0 0 1 32.899999 104.900002 A 10.7 10.7 0 0 1 43.599998 94.200002 A 10.7 10.7 0 0 1 54.299998 104.900002 Z" fill="#EEF2C2" transform="matrix(1, 0, 0, 1, 2.842170943040401e-14, 7.105427357601002e-15)"/><path fill="#39B54A" d="M118.5,140.3c5.8,8.4-1,17.5-9.2,16.1c-4-0.7-7.3-3.9-8-8c-1.4-8.3,7.7-15,16.1-9.2&#10;&#9;&#9;C117.9,139.5,118.3,139.9,118.5,140.3z" transform="matrix(1, 0, 0, 1, 2.842170943040401e-14, 7.105427357601002e-15)"/><path fill="#39B54A" d="M419,462.2c5.8,8.4-1,17.5-9.2,16.1c-4-0.7-7.3-3.9-8-8c-1.4-8.3,7.7-15,16.1-9.2&#10;&#9;&#9;C418.4,461.4,418.7,461.8,419,462.2z" transform="matrix(1, 0, 0, 1, 2.842170943040401e-14, 7.105427357601002e-15)"/><path d="M 296.399994 74.599998 A 21.5 21.5 0 0 1 274.899994 96.099998 A 21.5 21.5 0 0 1 253.399994 74.599998 A 21.5 21.5 0 0 1 274.899994 53.099998 A 21.5 21.5 0 0 1 296.399994 74.599998 Z" fill="#FFF200" transform="matrix(1, 0, 0, 1, 2.842170943040401e-14, 7.105427357601002e-15)"/><path d="M 346.999988 50.200001 A 10.7 10.7 0 0 1 336.299988 60.900001 A 10.7 10.7 0 0 1 325.599988 50.200001 A 10.7 10.7 0 0 1 336.299988 39.500001 A 10.7 10.7 0 0 1 346.999988 50.200001 Z" fill="#EEF2C2" transform="matrix(1, 0, 0, 1, 2.842170943040401e-14, 7.105427357601002e-15)"/><path fill="#EE2A7B" d="M216.3,36.6c0,7-5.7,12.7-12.7,12.7c-7,0-16.6-9.6-16.6-16.6s9.6-8.8,16.6-8.8&#10;&#9;&#9;C210.6,23.9,216.3,29.6,216.3,36.6z" transform="matrix(1, 0, 0, 1, 2.842170943040401e-14, 7.105427357601002e-15)"/><path d="M 270.900012 234.600006 A 11.7 11.7 0 0 1 259.200012 246.300006 A 11.7 11.7 0 0 1 247.500012 234.600006 A 11.7 11.7 0 0 1 259.200012 222.900006 A 11.7 11.7 0 0 1 270.900012 234.600006 Z" fill="#EEF2C2" transform="matrix(1, 0, 0, 1, 2.842170943040401e-14, 7.105427357601002e-15)"/><path d="M 212.499994 474.600006 A 17.6 17.6 0 0 1 194.899994 492.200006 A 17.6 17.6 0 0 1 177.299994 474.600006 A 17.6 17.6 0 0 1 194.899994 457.000006 A 17.6 17.6 0 0 1 212.499994 474.600006 Z" fill="#DA1C5C" transform="matrix(1, 0, 0, 1, 2.842170943040401e-14, 7.105427357601002e-15)"/><path d="M 105.100001 555.599976 A 10.7 10.7 0 0 1 94.400002 566.299975 A 10.7 10.7 0 0 1 83.700002 555.599976 A 10.7 10.7 0 0 1 94.400002 544.899976 A 10.7 10.7 0 0 1 105.100001 555.599976 Z" fill="#EE2A7B" transform="matrix(1, 0, 0, 1, 2.842170943040401e-14, 7.105427357601002e-15)"/><path d="M 155.8 620 A 6.8 6.8 0 0 1 149 626.8 A 6.8 6.8 0 0 1 142.2 620 A 6.8 6.8 0 0 1 149 613.2 A 6.8 6.8 0 0 1 155.8 620 Z" fill="#DA1C5C" transform="matrix(1, 0, 0, 1, 2.842170943040401e-14, 7.105427357601002e-15)"/><path d="M 1088.600049 51.200001 A 9.8 9.8 0 0 1 1078.800049 61.000001 A 9.8 9.8 0 0 1 1069.000049 51.200001 A 9.8 9.8 0 0 1 1078.800049 41.400001 A 9.8 9.8 0 0 1 1088.600049 51.200001 Z" fill="#DA1C5C" transform="matrix(1, 0, 0, 1, 2.842170943040401e-14, 7.105427357601002e-15)"/><path fill="#EE2A7B" d="M1162.7,38.5c0,5.9-4.8,10.7-10.7,10.7c-5.9,0-14.6-8.7-14.6-14.6s8.7-6.8,14.6-6.8&#10;&#9;&#9;C1157.9,27.8,1162.7,32.6,1162.7,38.5z" transform="matrix(1, 0, 0, 1, 2.842170943040401e-14, 7.105427357601002e-15)"/><path d="M 1150.900049 121.400002 A 15.6 15.6 0 0 1 1135.300049 137.000002 A 15.6 15.6 0 0 1 1119.700048 121.400002 A 15.6 15.6 0 0 1 1135.300049 105.800001 A 15.6 15.6 0 0 1 1150.900049 121.400002 Z" fill="#EEF2C2" transform="matrix(1, 0, 0, 1, 2.842170943040401e-14, 7.105427357601002e-15)"/><path d="M 1277.799999 100 A 29.299999 29.299999 0 0 1 1248.5 129.299999 A 29.299999 29.299999 0 0 1 1219.200001 100 A 29.299999 29.299999 0 0 1 1248.5 70.700001 A 29.299999 29.299999 0 0 1 1277.799999 100 Z" fill="#DA1C5C" transform="matrix(1, 0, 0, 1, 2.842170943040401e-14, 7.105427357601002e-15)"/><path d="M 1244.600024 188.800003 A 10.7 10.7 0 0 1 1233.900024 199.500003 A 10.7 10.7 0 0 1 1223.200025 188.800003 A 10.7 10.7 0 0 1 1233.900024 178.100003 A 10.7 10.7 0 0 1 1244.600024 188.800003 Z" fill="#1C75BC" transform="matrix(1, 0, 0, 1, 2.842170943040401e-14, 7.105427357601002e-15)"/><path d="M 1135.300024 528.299988 A 22.4 22.4 0 0 1 1112.900024 550.699987 A 22.4 22.4 0 0 1 1090.500025 528.299988 A 22.4 22.4 0 0 1 1112.900024 505.899988 A 22.4 22.4 0 0 1 1135.300024 528.299988 Z" fill="#F15A29" transform="matrix(1, 0, 0, 1, 2.842170943040401e-14, 7.105427357601002e-15)"/><path fill="#39B54A" d="M1285.5,329.7c1,6-4.1,11.1-10.1,10.1c-3.6-0.6-6.6-3.5-7.2-7.2c-1-6,4.1-11.1,10.1-10.1&#10;&#9;&#9;C1281.9,323.1,1284.9,326.1,1285.5,329.7z" transform="matrix(1, 0, 0, 1, 2.842170943040401e-14, 7.105427357601002e-15)"/><path d="M 1309.000049 233.600006 A 12.7 12.7 0 0 1 1296.300049 246.300006 A 12.7 12.7 0 0 1 1283.600049 233.600006 A 12.7 12.7 0 0 1 1296.300049 220.900006 A 12.7 12.7 0 0 1 1309.000049 233.600006 Z" fill="#EE2A7B" transform="matrix(1, 0, 0, 1, 2.842170943040401e-14, 7.105427357601002e-15)"/><path d="M 1357.799975 70.699997 A 13.7 13.7 0 0 1 1344.099976 84.399997 A 13.7 13.7 0 0 1 1330.399976 70.699997 A 13.7 13.7 0 0 1 1344.099976 56.999997 A 13.7 13.7 0 0 1 1357.799975 70.699997 Z" fill="#1C75BC" transform="matrix(1, 0, 0, 1, 2.842170943040401e-14, 7.105427357601002e-15)"/><path d="M 1353.899951 800.5 A 13.7 13.7 0 0 1 1340.199951 814.2 A 13.7 13.7 0 0 1 1326.499951 800.5 A 13.7 13.7 0 0 1 1340.199951 786.8 A 13.7 13.7 0 0 1 1353.899951 800.5 Z" fill="#1C75BC" transform="matrix(1, 0, 0, 1, 2.842170943040401e-14, 7.105427357601002e-15)"/><path d="M 1373.399976 146.800003 A 9.8 9.8 0 0 1 1363.599976 156.600003 A 9.8 9.8 0 0 1 1353.799975 146.800003 A 9.8 9.8 0 0 1 1363.599976 137.000003 A 9.8 9.8 0 0 1 1373.399976 146.800003 Z" fill="#EEF2C2" transform="matrix(1, 0, 0, 1, 2.842170943040401e-14, 7.105427357601002e-15)"/><path d="M 1355.799952 359.5 A 15.6 15.6 0 0 1 1340.199951 375.1 A 15.6 15.6 0 0 1 1324.599951 359.5 A 15.6 15.6 0 0 1 1340.199951 343.9 A 15.6 15.6 0 0 1 1355.799952 359.5 Z" fill="#DA1C5C" transform="matrix(1, 0, 0, 1, 2.842170943040401e-14, 7.105427357601002e-15)"/><path d="M 971.399988 519.5 A 15.6 15.6 0 0 1 955.799988 535.1 A 15.6 15.6 0 0 1 940.199987 519.5 A 15.6 15.6 0 0 1 955.799988 503.9 A 15.6 15.6 0 0 1 971.399988 519.5 Z" fill="#DA1C5C" transform="matrix(1, 0, 0, 1, 2.842170943040401e-14, 7.105427357601002e-15)"/><path d="M 1334.299975 440.5 A 10.7 10.7 0 0 1 1323.599976 451.2 A 10.7 10.7 0 0 1 1312.899976 440.5 A 10.7 10.7 0 0 1 1323.599976 429.8 A 10.7 10.7 0 0 1 1334.299975 440.5 Z" fill="#FFF200" transform="matrix(1, 0, 0, 1, 2.842170943040401e-14, 7.105427357601002e-15)"/><path d="M 457.300006 652.200012 A 10.7 10.7 0 0 1 446.600006 662.900012 A 10.7 10.7 0 0 1 435.900006 652.200012 A 10.7 10.7 0 0 1 446.600006 641.500012 A 10.7 10.7 0 0 1 457.300006 652.200012 Z" fill="#FFF200" transform="matrix(1, 0, 0, 1, 2.842170943040401e-14, 7.105427357601002e-15)"/><path d="M 1283.600024 496.100006 A 11.7 11.7 0 0 1 1271.900024 507.800006 A 11.7 11.7 0 0 1 1260.200025 496.100006 A 11.7 11.7 0 0 1 1271.900024 484.400006 A 11.7 11.7 0 0 1 1283.600024 496.100006 Z" fill="#1C75BC" transform="matrix(1, 0, 0, 1, 2.842170943040401e-14, 7.105427357601002e-15)"/><path d="M 1281.7 596.599976 A 10.7 10.7 0 0 1 1271 607.299975 A 10.7 10.7 0 0 1 1260.3 596.599976 A 10.7 10.7 0 0 1 1271 585.899976 A 10.7 10.7 0 0 1 1281.7 596.599976 Z" fill="#EE2A7B" transform="matrix(1, 0, 0, 1, 2.842170943040401e-14, 7.105427357601002e-15)"/><path d="M 1326.599951 568.299988 A 5.9 5.9 0 0 1 1320.699951 574.199988 A 5.9 5.9 0 0 1 1314.799951 568.299988 A 5.9 5.9 0 0 1 1320.699951 562.399988 A 5.9 5.9 0 0 1 1326.599951 568.299988 Z" fill="#EEF2C2" transform="matrix(1, 0, 0, 1, 2.842170943040401e-14, 7.105427357601002e-15)"/><path d="M 1242.7 555.599976 A 12.7 12.7 0 0 1 1230 568.299975 A 12.7 12.7 0 0 1 1217.3 555.599976 A 12.7 12.7 0 0 1 1230 542.899976 A 12.7 12.7 0 0 1 1242.7 555.599976 Z" fill="#F15A29" transform="matrix(1, 0, 0, 1, 2.842170943040401e-14, 7.105427357601002e-15)"/><path d="M 1232.899976 669.700012 A 9.8 9.8 0 0 1 1223.099976 679.500012 A 9.8 9.8 0 0 1 1213.299975 669.700012 A 9.8 9.8 0 0 1 1223.099976 659.900012 A 9.8 9.8 0 0 1 1232.899976 669.700012 Z" fill="#FFF200" transform="matrix(1, 0, 0, 1, 2.842170943040401e-14, 7.105427357601002e-15)"/><path d="M 40.70000076293945 17.600000381469727 L 46 28.299999237060547 L 57.79999923706055 30 L 49.29999923706055 38.400001525878906 L 51.29999923706055 50.099998474121094 L 40.70000076293945 44.599998474121094 L 30.100000381469727 50.099998474121094 L 32.20000076293945 38.400001525878906 L 23.600000381469727 30 L 35.400001525878906 28.299999237060547 Z" fill="#1C75BC" transform="matrix(1, 0, 0, 1, 2.842170943040401e-14, 7.105427357601002e-15)"/><path d="M 185.10000610351562 125.30000305175781 L 169.5 122.9000015258789 L 158.60000610351562 134.5 L 156.10000610351562 118.9000015258789 L 141.8000030517578 112.0999984741211 L 155.8000030517578 104.9000015258789 L 157.8000030517578 89.19999694824219 L 169.10000610351562 100.30000305175781 L 184.60000610351562 97.30000305175781 L 177.5 111.5 Z" fill="#FFF200" transform="matrix(1, 0, 0, 1, 2.842170943040401e-14, 7.105427357601002e-15)"/><path d="M 528.5 164.39999389648438 L 512.9000244140625 162 L 502 173.5 L 499.5 157.89999389648438 L 485.20001220703125 151.10000610351562 L 499.20001220703125 143.89999389648438 L 501.20001220703125 128.1999969482422 L 512.5 139.3000030517578 L 528 136.39999389648438 L 520.9000244140625 150.5 Z" fill="#FFF200" transform="matrix(1, 0, 0, 1, 2.842170943040401e-14, 7.105427357601002e-15)"/><path d="M 247.5 189.6999969482422 L 231.89999389648438 181.5 L 216.3000030517578 189.6999969482422 L 219.3000030517578 172.39999389648438 L 206.6999969482422 160.10000610351562 L 224.10000610351562 157.5 L 231.89999389648438 141.6999969482422 L 239.6999969482422 157.5 L 257.20001220703125 160.10000610351562 L 244.5 172.39999389648438 Z" fill="#DA1C5C" transform="matrix(1, 0, 0, 1, 2.842170943040401e-14, 7.105427357601002e-15)"/><path d="M 370.5 100 L 360.6000061035156 97.5999984741211 L 353.1000061035156 104.4000015258789 L 352.29998779296875 94.30000305175781 L 343.6000061035156 89.19999694824219 L 352.8999938964844 85.30000305175781 L 355 75.4000015258789 L 361.6000061035156 83.0999984741211 L 371.70001220703125 82.0999984741211 L 366.3999938964844 90.69999694824219 Z" fill="#EEF2C2" transform="matrix(1, 0, 0, 1, 2.842170943040401e-14, 7.105427357601002e-15)"/><path d="M 423.1000061035156 62.900001525878906 L 412.1000061035156 64 L 406.79998779296875 73.69999694824219 L 402.29998779296875 63.599998474121094 L 391.5 61.5 L 399.70001220703125 54.099998474121094 L 398.29998779296875 43.099998474121094 L 407.8999938964844 48.70000076293945 L 417.8999938964844 44 L 415.6000061035156 54.79999923706055 Z" fill="#EEF2C2" transform="matrix(1, 0, 0, 1, 2.842170943040401e-14, 7.105427357601002e-15)"/><path d="M 349 170.1999969482422 L 334.5 164.3000030517578 L 321.5 172.89999389648438 L 322.6000061035156 157.39999389648438 L 310.3999938964844 147.60000610351562 L 325.6000061035156 143.89999389648438 L 331.1000061035156 129.3000030517578 L 339.29998779296875 142.5 L 354.8999938964844 143.1999969482422 L 344.8999938964844 155.1999969482422 Z" fill="#EE2A7B" transform="matrix(1, 0, 0, 1, 2.842170943040401e-14, 7.105427357601002e-15)"/><path d="M 362.70001220703125 250.1999969482422 L 346.5 243.8000030517578 L 332 253.39999389648438 L 333.1000061035156 236 L 319.3999938964844 225.1999969482422 L 336.29998779296875 221 L 342.3999938964844 204.60000610351562 L 351.70001220703125 219.3000030517578 L 369.1000061035156 220 L 357.8999938964844 233.39999389648438 Z" fill="#F15A29" transform="matrix(1, 0, 0, 1, 2.842170943040401e-14, 7.105427357601002e-15)"/><path d="M 1021.5 646 L 1005.2999877929688 639.5 L 990.7999877929688 649.2000122070312 L 991.9000244140625 631.7999877929688 L 978.2000122070312 621 L 995.0999755859375 616.7000122070312 L 1001.2000122070312 600.4000244140625 L 1010.5 615.0999755859375 L 1027.9000244140625 615.7999877929688 L 1016.7000122070312 629.2000122070312 Z" fill="#F15A29" transform="matrix(1, 0, 0, 1, 2.842170943040401e-14, 7.105427357601002e-15)"/><path d="M 282.70001220703125 309.1000061035156 L 263.6000061035156 299.70001220703125 L 245.10000610351562 310.1000061035156 L 248.10000610351562 289.1000061035156 L 232.5 274.6000061035156 L 253.39999389648438 271 L 262.29998779296875 251.6999969482422 L 272.20001220703125 270.5 L 293.29998779296875 273 L 278.5 288.20001220703125 Z" fill="#F15A29" transform="matrix(1, 0, 0, 1, 2.842170943040401e-14, 7.105427357601002e-15)"/><path d="M 124.5999984741211 404.3999938964844 L 106.0999984741211 402 L 93.5999984741211 415.79998779296875 L 90.19999694824219 397.5 L 73.0999984741211 389.8999938964844 L 89.5 381 L 91.4000015258789 362.3999938964844 L 105 375.20001220703125 L 123.30000305175781 371.29998779296875 L 115.30000305175781 388.20001220703125 Z" fill="#FFF200" transform="matrix(1, 0, 0, 1, 2.842170943040401e-14, 7.105427357601002e-15)"/><path d="M 391.8999938964844 597.5 L 373.3999938964844 595.0999755859375 L 360.8999938964844 609 L 357.5 590.5999755859375 L 340.3999938964844 583.0999755859375 L 356.79998779296875 574.0999755859375 L 358.70001220703125 555.5 L 372.29998779296875 568.4000244140625 L 390.6000061035156 564.5 L 382.6000061035156 581.4000244140625 Z" fill="#FFF200" transform="matrix(1, 0, 0, 1, 2.842170943040401e-14, 7.105427357601002e-15)"/><path d="M 58.29999923706055 330.20001220703125 L 48.400001525878906 325 L 38.5 330.1000061035156 L 40.5 319.1000061035156 L 32.599998474121094 311.20001220703125 L 43.599998474121094 309.70001220703125 L 48.599998474121094 299.79998779296875 L 53.5 309.79998779296875 L 64.5 311.5 L 56.5 319.20001220703125 Z" fill="#EEF2C2" transform="matrix(1, 0, 0, 1, 2.842170943040401e-14, 7.105427357601002e-15)"/><path d="M 185.10000610351562 369.20001220703125 L 181.60000610351562 368.1000061035156 L 178.6999969482422 370.29998779296875 L 178.6999969482422 366.6000061035156 L 175.6999969482422 364.5 L 179.1999969482422 363.3999938964844 L 180.3000030517578 359.8999938964844 L 182.39999389648438 362.8999938964844 L 186.10000610351562 362.79998779296875 L 183.89999389648438 365.79998779296875 Z" fill="#EEF2C2" transform="matrix(1, 0, 0, 1, 2.842170943040401e-14, 7.105427357601002e-15)"/><path d="M 142.1999969482422 445.29998779296875 L 129.39999389648438 443 L 120.30000305175781 452.1000061035156 L 118.5999984741211 439.20001220703125 L 107.0999984741211 433.29998779296875 L 118.80000305175781 427.79998779296875 L 120.80000305175781 415 L 129.6999969482422 424.3999938964844 L 142.5 422.3999938964844 L 136.3000030517578 433.79998779296875 Z" fill="#1C75BC" transform="matrix(1, 0, 0, 1, 2.842170943040401e-14, 7.105427357601002e-15)"/><path d="M 62.20000076293945 507.79998779296875 L 53.5 504.79998779296875 L 46.20000076293945 510.29998779296875 L 46.29999923706055 501.20001220703125 L 38.79999923706055 495.8999938964844 L 47.5 493.1000061035156 L 50.29999923706055 484.3999938964844 L 55.5 491.8999938964844 L 64.69999694824219 491.79998779296875 L 59.20000076293945 499.1000061035156 Z" fill="#39B54A" transform="matrix(1, 0, 0, 1, 2.842170943040401e-14, 7.105427357601002e-15)"/><path d="M 461.20001220703125 221.8000030517578 L 452.5 218.89999389648438 L 445.20001220703125 224.39999389648438 L 445.29998779296875 215.1999969482422 L 437.79998779296875 209.89999389648438 L 446.6000061035156 207.1999969482422 L 449.29998779296875 198.39999389648438 L 454.6000061035156 205.89999389648438 L 463.70001220703125 205.8000030517578 L 458.29998779296875 213.10000610351562 Z" fill="#39B54A" transform="matrix(1, 0, 0, 1, 2.842170943040401e-14, 7.105427357601002e-15)"/><path d="M 657.5999755859375 65.5999984741211 L 648.9000244140625 62.70000076293945 L 641.5999755859375 68.19999694824219 L 641.7000122070312 59 L 634.2000122070312 53.70000076293945 L 643 51 L 645.7000122070312 42.20000076293945 L 651 49.70000076293945 L 660.0999755859375 49.599998474121094 L 654.5999755859375 56.900001525878906 Z" fill="#39B54A" transform="matrix(1, 0, 0, 1, 2.842170943040401e-14, 7.105427357601002e-15)"/><path d="M 485.8999938964844 114.4000015258789 L 477.20001220703125 111.5 L 469.8999938964844 116.9000015258789 L 470 107.80000305175781 L 462.5 102.5 L 471.20001220703125 99.80000305175781 L 474 91 L 479.29998779296875 98.5 L 488.3999938964844 98.4000015258789 L 482.8999938964844 105.69999694824219 Z" fill="#39B54A" transform="matrix(1, 0, 0, 1, 2.842170943040401e-14, 7.105427357601002e-15)"/><path d="M 415.6000061035156 377.79998779296875 L 407 374.8999938964844 L 399.6000061035156 380.3999938964844 L 399.70001220703125 371.20001220703125 L 392.29998779296875 365.8999938964844 L 401 363.20001220703125 L 403.70001220703125 354.3999938964844 L 409 361.8999938964844 L 418.20001220703125 361.79998779296875 L 412.70001220703125 369.1000061035156 Z" fill="#39B54A" transform="matrix(1, 0, 0, 1, 2.842170943040401e-14, 7.105427357601002e-15)"/><path d="M 960 239.3000030517578 L 951.2999877929688 236.3000030517578 L 944 241.8000030517578 L 944.0999755859375 232.6999969482422 L 936.5999755859375 227.39999389648438 L 945.4000244140625 224.60000610351562 L 948.0999755859375 215.89999389648438 L 953.4000244140625 223.39999389648438 L 962.5999755859375 223.3000030517578 L 957.0999755859375 230.60000610351562 Z" fill="#39B54A" transform="matrix(1, 0, 0, 1, 2.842170943040401e-14, 7.105427357601002e-15)"/><path d="M 1037.300048828125 270.8999938964844 L 1028.5999755859375 267.8999938964844 L 1021.2999877929688 273.3999938964844 L 1021.4000244140625 264.29998779296875 L 1013.9000244140625 259 L 1022.7000122070312 256.20001220703125 L 1025.4000244140625 247.5 L 1030.699951171875 255 L 1039.800048828125 254.89999389648438 L 1034.300048828125 262.20001220703125 Z" fill="#39B54A" transform="matrix(1, 0, 0, 1, 2.842170943040401e-14, 7.105427357601002e-15)"/><path d="M 579.5 40.29999923706055 L 570.9000244140625 37.29999923706055 L 563.5 42.79999923706055 L 563.5999755859375 33.599998474121094 L 556.2000122070312 28.299999237060547 L 564.9000244140625 25.600000381469727 L 567.5999755859375 16.899999618530273 L 572.9000244140625 24.399999618530273 L 582.0999755859375 24.200000762939453 L 576.5999755859375 31.600000381469727 Z" fill="#39B54A" transform="matrix(1, 0, 0, 1, 2.842170943040401e-14, 7.105427357601002e-15)"/><path d="M 181.1999969482422 552.7000122070312 L 168.5 547.4000244140625 L 156.89999389648438 554.9000244140625 L 158 541.0999755859375 L 147.3000030517578 532.4000244140625 L 160.6999969482422 529.2000122070312 L 165.6999969482422 516.4000244140625 L 172.8000030517578 528.0999755859375 L 186.60000610351562 528.9000244140625 L 177.60000610351562 539.2999877929688 Z" fill="#F15A29" transform="matrix(1, 0, 0, 1, 2.842170943040401e-14, 7.105427357601002e-15)"/><path d="M 315.5 456.70001220703125 L 302.79998779296875 451.3999938964844 L 291.20001220703125 458.8999938964844 L 292.29998779296875 445.20001220703125 L 281.6000061035156 436.5 L 295 433.29998779296875 L 299.8999938964844 420.3999938964844 L 307.1000061035156 432.20001220703125 L 320.8999938964844 432.8999938964844 L 311.8999938964844 443.3999938964844 Z" fill="#F15A29" transform="matrix(1, 0, 0, 1, 2.842170943040401e-14, 7.105427357601002e-15)"/><path d="M 99.19999694824219 665.7999877929688 L 87.0999984741211 655.9000244140625 L 72.0999984741211 660.2999877929688 L 77.80000305175781 645.7000122070312 L 69 632.7000122070312 L 84.5999984741211 633.5999755859375 L 94.19999694824219 621.2999877929688 L 98.19999694824219 636.4000244140625 L 112.9000015258789 641.7000122070312 L 99.69999694824219 650.2000122070312 Z" fill="#F15A29" transform="matrix(1, 0, 0, 1, 2.842170943040401e-14, 7.105427357601002e-15)"/><path d="M 1209.5 443.3999938964844 L 1202 439.8999938964844 L 1194.800048828125 444.1000061035156 L 1195.800048828125 435.79998779296875 L 1189.5999755859375 430.29998779296875 L 1197.800048828125 428.79998779296875 L 1201.0999755859375 421.20001220703125 L 1205.0999755859375 428.3999938964844 L 1213.4000244140625 429.20001220703125 L 1207.699951171875 435.29998779296875 Z" fill="#EEF2C2" transform="matrix(1, 0, 0, 1, 2.842170943040401e-14, 7.105427357601002e-15)"/><path d="M 839.2000122070312 42.79999923706055 L 831.7000122070312 39.20000076293945 L 824.5999755859375 43.400001525878906 L 825.5999755859375 35.20000076293945 L 819.4000244140625 29.700000762939453 L 827.5 28.100000381469727 L 830.7999877929688 20.5 L 834.9000244140625 27.799999237060547 L 843.0999755859375 28.600000381469727 L 837.4000244140625 34.70000076293945 Z" fill="#EEF2C2" transform="matrix(1, 0, 0, 1, 2.842170943040401e-14, 7.105427357601002e-15)"/><path d="M 1232.9000244140625 281.3999938964844 L 1224.199951171875 281.3999938964844 L 1219.199951171875 288.5 L 1216.5999755859375 280.20001220703125 L 1208.300048828125 277.70001220703125 L 1215.300048828125 272.70001220703125 L 1215.199951171875 264 L 1222.199951171875 269.1000061035156 L 1230.4000244140625 266.29998779296875 L 1227.699951171875 274.5 Z" fill="#EEF2C2" transform="matrix(1, 0, 0, 1, 2.842170943040401e-14, 7.105427357601002e-15)"/><path d="M 1020.2000122070312 105.80000305175781 L 1000.5999755859375 98.19999694824219 L 983.0999755859375 110.0999984741211 L 984.2999877929688 89 L 967.5999755859375 76.0999984741211 L 988 70.69999694824219 L 995.2000122070312 50.900001525878906 L 1006.5999755859375 68.5999984741211 L 1027.699951171875 69.19999694824219 L 1014.2999877929688 85.5999984741211 Z" fill="#FFF200" transform="matrix(1, 0, 0, 1, 2.842170943040401e-14, 7.105427357601002e-15)"/><path d="M 1067.0999755859375 379.70001220703125 L 1047.4000244140625 372.1000061035156 L 1030 384 L 1031.199951171875 362.8999938964844 L 1014.5 350 L 1034.9000244140625 344.6000061035156 L 1042 324.79998779296875 L 1053.4000244140625 342.5 L 1074.5 343.1000061035156 L 1061.199951171875 359.5 Z" fill="#FFF200" transform="matrix(1, 0, 0, 1, 2.842170943040401e-14, 7.105427357601002e-15)"/><path d="M 918.7999877929688 43.400001525878906 L 910.7000122070312 41.599998474121094 L 904.5999755859375 47.29999923706055 L 903.7999877929688 39 L 896.5 35 L 904.0999755859375 31.700000762939453 L 905.7000122070312 23.5 L 911.2000122070312 29.700000762939453 L 919.4000244140625 28.700000762939453 L 915.2000122070312 35.900001525878906 Z" fill="#DA1C5C" transform="matrix(1, 0, 0, 1, 2.842170943040401e-14, 7.105427357601002e-15)"/><path d="M 485.6000061035156 57.400001525878906 L 466.5 48 L 448 58.400001525878906 L 451 37.29999923706055 L 435.3999938964844 22.899999618530273 L 456.29998779296875 19.299999237060547 L 465.20001220703125 0 L 475.1000061035156 18.799999237060547 L 496.20001220703125 21.299999237060547 L 481.3999938964844 36.5 Z" fill="#F15A29" transform="matrix(1, 0, 0, 1, 2.842170943040401e-14, 7.105427357601002e-15)"/><path d="M 1059.199951171875 150.6999969482422 L 1054 148.89999389648438 L 1049.5999755859375 152.1999969482422 L 1049.699951171875 146.6999969482422 L 1045.199951171875 143.60000610351562 L 1050.5 141.89999389648438 L 1052.0999755859375 136.6999969482422 L 1055.300048828125 141.1999969482422 L 1060.800048828125 141.10000610351562 L 1057.5 145.5 Z" fill="#1C75BC" transform="matrix(1, 0, 0, 1, 2.842170943040401e-14, 7.105427357601002e-15)"/><path d="M 1186.0999755859375 68.80000305175781 L 1176.199951171875 66.4000015258789 L 1168.699951171875 73.0999984741211 L 1167.9000244140625 63.099998474121094 L 1159.199951171875 58 L 1168.5 54.099998474121094 L 1170.5999755859375 44.20000076293945 L 1177.199951171875 51.900001525878906 L 1187.300048828125 50.900001525878906 L 1182 59.5 Z" fill="#EEF2C2" transform="matrix(1, 0, 0, 1, 2.842170943040401e-14, 7.105427357601002e-15)"/><path d="M 1275.800048828125 53.099998474121094 L 1259.5999755859375 46.70000076293945 L 1245.0999755859375 56.400001525878906 L 1246.300048828125 39 L 1232.5999755859375 28.200000762939453 L 1249.5 23.899999618530273 L 1255.5 7.5 L 1264.800048828125 22.299999237060547 L 1282.300048828125 23 L 1271.0999755859375 36.400001525878906 Z" fill="#F15A29" transform="matrix(1, 0, 0, 1, 2.842170943040401e-14, 7.105427357601002e-15)"/><path d="M 886.7999877929688 127 L 870.5999755859375 120.5 L 856.0999755859375 130.1999969482422 L 857.2999877929688 112.80000305175781 L 843.5999755859375 102 L 860.5 97.69999694824219 L 866.5 81.30000305175781 L 875.7999877929688 96.0999984741211 L 893.2000122070312 96.80000305175781 L 882.0999755859375 110.19999694824219 Z" fill="#F15A29" transform="matrix(1, 0, 0, 1, 2.842170943040401e-14, 7.105427357601002e-15)"/><path d="M 1309 150.6999969482422 L 1299.199951171875 145.39999389648438 L 1289.300048828125 150.5 L 1291.199951171875 139.60000610351562 L 1283.300048828125 131.6999969482422 L 1294.4000244140625 130.1999969482422 L 1299.4000244140625 120.30000305175781 L 1304.199951171875 130.3000030517578 L 1315.199951171875 132 L 1307.199951171875 139.6999969482422 Z" fill="#EEF2C2" transform="matrix(1, 0, 0, 1, 2.842170943040401e-14, 7.105427357601002e-15)"/><path d="M 1156.9000244140625 196.89999389648438 L 1147 191.6999969482422 L 1137.0999755859375 196.8000030517578 L 1139.0999755859375 185.8000030517578 L 1131.199951171875 178 L 1142.199951171875 176.5 L 1147.300048828125 166.5 L 1152.0999755859375 176.5 L 1163.0999755859375 178.1999969482422 L 1155.0999755859375 185.89999389648438 Z" fill="#EEF2C2" transform="matrix(1, 0, 0, 1, 2.842170943040401e-14, 7.105427357601002e-15)"/><path d="M 1357.800048828125 215.10000610351562 L 1344.5 208.6999969482422 L 1331.5999755859375 216 L 1333.699951171875 201.3000030517578 L 1322.699951171875 191.39999389648438 L 1337.300048828125 188.8000030517578 L 1343.4000244140625 175.3000030517578 L 1350.4000244140625 188.3000030517578 L 1365 190 L 1354.800048828125 200.60000610351562 Z" fill="#DA1C5C" transform="matrix(1, 0, 0, 1, 2.842170943040401e-14, 7.105427357601002e-15)"/><path d="M 1043.199951171875 511.1000061035156 L 1030 504.70001220703125 L 1017.0999755859375 512 L 1019.0999755859375 497.3999938964844 L 1008.2000122070312 487.3999938964844 L 1022.7999877929688 484.79998779296875 L 1028.9000244140625 471.29998779296875 L 1035.800048828125 484.3999938964844 L 1050.5 486 L 1040.300048828125 496.70001220703125 Z" fill="#DA1C5C" transform="matrix(1, 0, 0, 1, 2.842170943040401e-14, 7.105427357601002e-15)"/><path d="M 1350 293.1000061035156 L 1340.699951171875 286.1000061035156 L 1329.699951171875 289.79998779296875 L 1333.5 278.79998779296875 L 1326.699951171875 269.5 L 1338.300048828125 269.70001220703125 L 1345 260.29998779296875 L 1348.4000244140625 271.3999938964844 L 1359.4000244140625 274.8999938964844 L 1349.9000244140625 281.6000061035156 Z" fill="#FFF200" transform="matrix(1, 0, 0, 1, 2.842170943040401e-14, 7.105427357601002e-15)"/><path d="M 235.3000030517578 789.9000244140625 L 226.10000610351562 782.9000244140625 L 215.10000610351562 786.5 L 218.89999389648438 775.5999755859375 L 212 766.2999877929688 L 223.60000610351562 766.5 L 230.39999389648438 757.0999755859375 L 233.6999969482422 768.2000122070312 L 244.8000030517578 771.7000122070312 L 235.1999969482422 778.2999877929688 Z" fill="#FFF200" transform="matrix(1, 0, 0, 1, 2.842170943040401e-14, 7.105427357601002e-15)"/><path d="M 885.5999755859375 624.7000122070312 L 876.4000244140625 617.7000122070312 L 865.4000244140625 621.4000244140625 L 869.2000122070312 610.4000244140625 L 862.4000244140625 601.0999755859375 L 873.9000244140625 601.2999877929688 L 880.7000122070312 591.9000244140625 L 884.0999755859375 603 L 895.0999755859375 606.5 L 885.5999755859375 613.0999755859375 Z" fill="#FFF200" transform="matrix(1, 0, 0, 1, 2.842170943040401e-14, 7.105427357601002e-15)"/><path d="M 1218.0999755859375 378.70001220703125 L 1208.9000244140625 371.70001220703125 L 1197.9000244140625 375.29998779296875 L 1201.699951171875 364.3999938964844 L 1194.800048828125 355 L 1206.4000244140625 355.29998779296875 L 1213.199951171875 345.8999938964844 L 1216.5 356.8999938964844 L 1227.5999755859375 360.5 L 1218.0999755859375 367.1000061035156 Z" fill="#FFF200" transform="matrix(1, 0, 0, 1, 2.842170943040401e-14, 7.105427357601002e-15)"/><path d="M 1139.199951171875 277.5 L 1128.9000244140625 268.20001220703125 L 1115.300048828125 271.5 L 1121 258.70001220703125 L 1113.699951171875 246.8000030517578 L 1127.5 248.3000030517578 L 1136.5999755859375 237.6999969482422 L 1139.5 251.3000030517578 L 1152.4000244140625 256.6000061035156 L 1140.300048828125 263.6000061035156 Z" fill="#FFF200" transform="matrix(1, 0, 0, 1, 2.842170943040401e-14, 7.105427357601002e-15)"/><path d="M 1197.800048828125 566.2999877929688 L 1188.5 559.2999877929688 L 1177.5 563 L 1181.300048828125 552 L 1174.5 542.7000122070312 L 1186.0999755859375 542.9000244140625 L 1192.800048828125 533.5 L 1196.199951171875 544.5999755859375 L 1207.199951171875 548.0999755859375 L 1197.699951171875 554.7000122070312 Z" fill="#1C75BC" transform="matrix(1, 0, 0, 1, 2.842170943040401e-14, 7.105427357601002e-15)"/><path d="M 1140.800048828125 806.5999755859375 L 1131.5999755859375 799.5999755859375 L 1120.5999755859375 803.2000122070312 L 1124.4000244140625 792.2999877929688 L 1117.5 782.9000244140625 L 1129.0999755859375 783.2000122070312 L 1135.9000244140625 773.7999877929688 L 1139.199951171875 784.9000244140625 L 1150.300048828125 788.4000244140625 L 1140.800048828125 795 Z" fill="#1C75BC" transform="matrix(1, 0, 0, 1, 2.842170943040401e-14, 7.105427357601002e-15)"/><path d="M 1340.199951171875 498 L 1333.9000244140625 493.8999938964844 L 1326.9000244140625 496.8999938964844 L 1328.800048828125 489.5 L 1323.9000244140625 483.79998779296875 L 1331.4000244140625 483.3999938964844 L 1335.4000244140625 476.8999938964844 L 1338.0999755859375 484 L 1345.5 485.70001220703125 L 1339.5999755859375 490.5 Z" fill="#EEF2C2" transform="matrix(1, 0, 0, 1, 2.842170943040401e-14, 7.105427357601002e-15)"/><path d="M 1340.199951171875 636.5999755859375 L 1333.300048828125 634.2000122070312 L 1327.4000244140625 638.5999755859375 L 1327.5 631.2999877929688 L 1321.5 627 L 1328.5 624.9000244140625 L 1330.699951171875 617.9000244140625 L 1334.9000244140625 623.7999877929688 L 1342.199951171875 623.7000122070312 L 1337.9000244140625 629.5999755859375 Z" fill="#39B54A" transform="matrix(1, 0, 0, 1, 2.842170943040401e-14, 7.105427357601002e-15)"/><path d="M 231.89999389648438 654.0999755859375 L 218.60000610351562 644.7999877929688 L 203.39999389648438 650.4000244140625 L 208.1999969482422 634.9000244140625 L 198.10000610351562 622.2000122070312 L 214.39999389648438 621.9000244140625 L 223.39999389648438 608.4000244140625 L 228.60000610351562 623.7999877929688 L 244.3000030517578 628.2000122070312 L 231.3000030517578 637.9000244140625 Z" fill="#FFF200" transform="matrix(1, 0, 0, 1, 2.842170943040401e-14, 7.105427357601002e-15)"/><path d="M 155.8000030517578 704.9000244140625 L 146.60000610351562 697.9000244140625 L 135.60000610351562 701.5 L 139.39999389648438 690.5 L 132.5 681.2000122070312 L 144.10000610351562 681.4000244140625 L 150.89999389648438 672 L 154.1999969482422 683.0999755859375 L 165.3000030517578 686.5999755859375 L 155.8000030517578 693.2999877929688 Z" fill="#1C75BC" transform="matrix(1, 0, 0, 1, 2.842170943040401e-14, 7.105427357601002e-15)"/><path d="M 1287.5 730.2000122070312 L 1282.300048828125 725.5999755859375 L 1275.5999755859375 727.2000122070312 L 1278.4000244140625 720.7999877929688 L 1274.699951171875 714.9000244140625 L 1281.699951171875 715.5999755859375 L 1286.199951171875 710.2999877929688 L 1287.699951171875 717.0999755859375 L 1294.0999755859375 719.7999877929688 L 1288.0999755859375 723.2999877929688 Z" fill="#1C75BC" transform="matrix(1, 0, 0, 1, 2.842170943040401e-14, 7.105427357601002e-15)"/>
</svg>