<?xml version="1.0" encoding="UTF-8"?>
<svg xmlns="http://www.w3.org/2000/svg" viewBox="0 0 564.74 560.39">
  <link rel="stylesheet" href="https://www.dafont.com/transformers-movie.font" />
  <defs>
    <style>
      .cls-1 {
        fill: #efcb41;
        font-size: 128.8px;
      }

      .cls-1, .cls-2 {
        font-family: TransformersMovie, Transformers;
      }

      .cls-3 {
        fill: #eecb41;
      }

      .cls-3, .cls-4, .cls-5 {
        stroke-width: 0px;
      }

      .cls-4 {
        fill: #106a15;
      }

      .cls-6 {
        isolation: isolate;
      }

      .cls-5 {
        fill: #003e03;
      }

      .cls-2 {
        fill: #fbb20d;
        font-size: 79.71px;
      }
    </style>
  </defs>
  <g id="Shape_6" data-name="Shape 6" class="cls-6">
    <g id="Shape_4-2" data-name="Shape 4">
      <path class="cls-4" d="m365.37,151.39l-11-31-147,6-6,22c-44.12,15.33-88.25,30.67-132.37,46,25.46,90.33,50.91,180.67,76.37,271l274-1c25.46-90,50.91-180,76.37-270-43.46-14.33-86.91-28.67-130.37-43Z"/>
    </g>
    <text class="cls-2" transform="translate(107.07 259.15) scale(1.18 1)"><tspan x="0" y="0">HACKJPS</tspan></text>
    <text class="cls-1" transform="translate(146.94 377.39)"><tspan x="0" y="0">2024</tspan></text>
    <g id="Shape_3_copy-2" data-name="Shape 3 copy">
      <polygon class="cls-5" points="495.74 194.39 387.74 560.39 564.74 399.39 495.74 194.39"/>
    </g>
    <g id="Shape_3_copy-3" data-name="Shape 3 copy">
      <polygon class="cls-5" points="69 194.39 0 399.39 177 560.39 69 194.39"/>
    </g>
    <g id="Shape_5-2" data-name="Shape 5">
      <path class="cls-4" d="m343.4,85.16c-2.08-6.59-4.88-15.5-6.96-22.09-.42-3.25-1.02-6.47-1.82-9.65-4.78-19.2-13.08-30.55-20.84-37.31-7.26-6.33-19.81-13.18-39.07-15.28-8.07-.88-19.59-2.22-32.26,3.07-14.01,5.85-25.1,17.95-26.56,19.57-3.97,4.41-6.13,7.65-11.6,11.49-5.55,3.89-8.95,4.17-16.72,7.04-2.21.82-13.26,4.6-23.88,12.13-6.19,4.39-13.72,10.77-21.22,19.53-4.91,5.75-7.51,10.3-8.95,15.52-.86,3.12-1.42,8.38-1.02,14.06.07,1.05,1.57,16.15,6.47,16.82,2.28.31,4.31-2.65,5.46-4.05,4.15-5.09,13.44-10.28,36.53-9.48,7.06-.76,13.29-1.23,20.22-1.1,7.74.14,11.52,1.38,14.92,3.99,12.19,9.36,4.57,35.44,12.75,38.01,1.36.43,1.24-.41,7.9-.53,5.41-.1,8.23.47,17.02-.26,13.77-1.14,26.36-3.66,37.87-7.4,14.43-4.68,24.63-10.36,32.96-15.04,10.86-6.11,19.51-12.17,25.77-16.95-2.08-6.59-4.89-15.49-6.97-22.08Z"/>
    </g>
    <g id="Shape_7-2" data-name="Shape 7">
      <path class="cls-5" d="m337.14,70.79c-9.13-11.53-33.99-2.45-73.77.6-5.07.39-17.7,1.22-34.9,2.66-36.75,3.09-41,4.35-44.41,5.6-25.5,9.35-40.34,31.43-38.71,33.56,1.13,1.47,6.25-2.65,19.31-4.89,4.46-.76,7.57-.91,26.76-.95,5.96-.01,13.01-.01,20.94.02-1.64,6.28-3.33,12.61-5.09,19-2.06,7.5-4.15,14.89-6.26,22.17,21.27,0,39.06-1.55,52.35-3.17,24.69-3.03,36.18-7.46,43-9,6.08-1.37,18.83-4.32,29.32-15.08,13.91-14.27,20.65-38.91,11.45-50.52Z"/>
    </g>
    <g id="Shape_6-2" data-name="Shape 6">
      <path class="cls-3" d="m336.23,61.59s-.07-.06-.13-.1c0,0-1.26-.96-2.61-1.87-6.44-4.31-14.21-7.37-26.22-9-11.6-1.58-33.39-2.68-61.51-1,40,34,79.99,68,119.99,102-9.84-30.01-19.68-60.02-29.52-90.02Z"/>
    </g>
  </g>
</svg>